<mxfile host="app.diagrams.net" agent="Mozilla/5.0 (Windows NT 10.0; Win64; x64) AppleWebKit/537.36 (KHTML, like Gecko) Chrome/138.0.0.0 Safari/537.36" version="28.0.7">
  <diagram name="Page-1" id="6nVTNFklQlXNkcgog-Ei">
    <mxGraphModel dx="1158" dy="593" grid="0" gridSize="10" guides="1" tooltips="1" connect="1" arrows="1" fold="1" page="1" pageScale="1" pageWidth="827" pageHeight="1169" math="0" shadow="0">
      <root>
        <mxCell id="0" />
        <mxCell id="1" parent="0" />
        <mxCell id="mURqfK87lyIfhzLxHdiO-1" value="" style="rounded=1;whiteSpace=wrap;html=1;rotation=-90;sketch=1;curveFitting=1;jiggle=2;labelBackgroundColor=none;fillColor=#B2C9AB;strokeColor=#788AA3;fontColor=#46495D;" parent="1" vertex="1">
          <mxGeometry x="130" y="182.52" width="260" height="103" as="geometry" />
        </mxCell>
        <mxCell id="mURqfK87lyIfhzLxHdiO-5" value="" style="rounded=1;whiteSpace=wrap;html=1;rotation=-90;sketch=1;curveFitting=1;jiggle=2;labelBackgroundColor=none;fillColor=#B2C9AB;strokeColor=#788AA3;fontColor=#46495D;" parent="1" vertex="1">
          <mxGeometry x="704.74" y="163.88000000000002" width="260" height="132.64" as="geometry" />
        </mxCell>
        <mxCell id="mURqfK87lyIfhzLxHdiO-6" value="" style="rounded=1;whiteSpace=wrap;html=1;rotation=-90;sketch=1;curveFitting=1;jiggle=2;labelBackgroundColor=none;fillColor=#B2C9AB;strokeColor=#788AA3;fontColor=#46495D;" parent="1" vertex="1">
          <mxGeometry x="411.61" y="17.51" width="260" height="428.03" as="geometry" />
        </mxCell>
        <mxCell id="mURqfK87lyIfhzLxHdiO-7" value="" style="shape=ext;double=1;rounded=1;whiteSpace=wrap;html=1;sketch=1;curveFitting=1;jiggle=2;labelBackgroundColor=none;fillColor=#B2C9AB;strokeColor=#788AA3;fontColor=#46495D;" parent="1" vertex="1">
          <mxGeometry x="58" y="186.52" width="120" height="110" as="geometry" />
        </mxCell>
        <mxCell id="mURqfK87lyIfhzLxHdiO-8" value="" style="pointerEvents=1;shadow=0;dashed=0;html=1;strokeColor=none;labelPosition=center;verticalLabelPosition=bottom;verticalAlign=top;align=center;outlineConnect=0;shape=mxgraph.veeam.laptop;labelBackgroundColor=none;fillColor=#B2C9AB;fontColor=#46495D;" parent="1" vertex="1">
          <mxGeometry x="93.25" y="249.52" width="47.75" height="32.5" as="geometry" />
        </mxCell>
        <mxCell id="mURqfK87lyIfhzLxHdiO-10" value="&lt;font style=&quot;font-size: 21px;&quot;&gt;Data&amp;nbsp;&lt;/font&gt;&lt;div&gt;&lt;font style=&quot;font-size: 21px;&quot;&gt;Ingestion&lt;/font&gt;&lt;/div&gt;" style="text;html=1;align=center;verticalAlign=middle;resizable=0;points=[];autosize=1;strokeColor=none;fillColor=none;sketch=1;curveFitting=1;jiggle=2;labelBackgroundColor=none;fontColor=#46495D;" parent="1" vertex="1">
          <mxGeometry x="209.5" y="124.52" width="103" height="62" as="geometry" />
        </mxCell>
        <mxCell id="mURqfK87lyIfhzLxHdiO-12" value="&lt;font style=&quot;font-size: 21px;&quot;&gt;Data&amp;nbsp;&lt;/font&gt;&lt;div&gt;&lt;span style=&quot;font-size: 21px;&quot;&gt;Storage &amp;amp;&lt;br&gt;&lt;/span&gt;&lt;div&gt;&lt;font style=&quot;font-size: 21px;&quot;&gt;Transformation&lt;/font&gt;&lt;/div&gt;&lt;/div&gt;" style="text;html=1;align=center;verticalAlign=middle;resizable=0;points=[];autosize=1;rounded=0;glass=0;textDirection=ltr;flipH=0;flipV=0;rotation=0;sketch=1;curveFitting=1;jiggle=2;labelBackgroundColor=none;fontColor=#46495D;" parent="1" vertex="1">
          <mxGeometry x="476.75" y="118.53000000000002" width="158" height="88" as="geometry" />
        </mxCell>
        <mxCell id="mURqfK87lyIfhzLxHdiO-13" value="&lt;font style=&quot;font-size: 21px;&quot;&gt;Data&lt;/font&gt;&lt;div&gt;&lt;font style=&quot;font-size: 21px;&quot;&gt;Presentation&lt;/font&gt;&lt;/div&gt;" style="text;html=1;align=center;verticalAlign=middle;resizable=0;points=[];autosize=1;strokeColor=none;fillColor=none;sketch=1;curveFitting=1;jiggle=2;labelBackgroundColor=none;fontColor=#46495D;" parent="1" vertex="1">
          <mxGeometry x="766.74" y="136.00000000000003" width="136" height="62" as="geometry" />
        </mxCell>
        <mxCell id="mURqfK87lyIfhzLxHdiO-14" value="" style="shape=image;html=1;verticalAlign=top;verticalLabelPosition=bottom;labelBackgroundColor=none;imageAspect=0;aspect=fixed;image=https://icons.diagrams.net/icon-cache1/Long_shadow_web_icons-2008/python-943.svg;sketch=1;curveFitting=1;jiggle=2;fillColor=#B2C9AB;strokeColor=#788AA3;fontColor=#46495D;" parent="1" vertex="1">
          <mxGeometry x="212" y="206.53" width="50" height="50" as="geometry" />
        </mxCell>
        <mxCell id="mURqfK87lyIfhzLxHdiO-15" value="" style="shape=image;verticalLabelPosition=bottom;labelBackgroundColor=none;verticalAlign=top;aspect=fixed;imageAspect=0;image=data:image/png,iVBORw0KGgoAAAANSUhEUgAAAcsAAABuCAMAAAB/esicAAAAYFBMVEX///8ptegAsOfg8vsXsufC5vei2vPq9/wgs+j5/f4AruZgw+w/u+q04PW74/ZxyO70+/7K6fiT1PHk9PvR7PlUwOvY7/qFz/B2yu42uOmb1/Kd2PKr3fR+ze+14fVZweymo7aSAAARwUlEQVR4nO1dCZOrrBKNSCImJkYTY8z6///lkwaRpVGcb+ZmeZ6qWzXXhQAHmt7AxWLG/xuW5b0ssBvHy71+pP+6OjN+jIIRyiiJjvaNQ8ZvUHJ7Ra1m/ADbdSSwXpo3YsLEDVK/pmYzJuLQUdlylhh3IqZuLD0vz3gr5IqxiN71GzeqbkTNq2o3YwpIz1hE9RtVT3JE4ldVb0Y4DjqXhpBlOsmzkP0AxF4uqc7l7mUVnBGMmcvvwczl92Dm8nswc/k9mLn8WMSng3XhR1weTrPB+VqkNSWERCv92k+4XEVtMbSe4yevw4EJemikWf7TuVxGshhmTfEZ/wwp633llRKRU7mMK/UCY/PMfBFqjRxG7pKHaVymd6K59ujXxsLS4nLP87OK6O6yzQ+F0LGqnLjwf4dOWssDEcvmJC5vhBqFkN+v5Ttgf2/VAdZifRIXTmvG6PA7HiTtm+tk/LlpOJlctvw0PC1kApdFQ60iyOm3a/kOOKoRS0txZUV/Gipakr+I/hY2l+2PtIIjmMtkgxTwB+Lj5ThpwXm5tPwHLulfBJlil4p22SxPYVxuS32hVM9/o5UJ7eTGG1G5Me/G5cIWkIIk46qXS+s5dfXXK/l6cN6idozvrWtvxWWJ0mHOMy+XKLrl5KsA/WAlmL4dl4sGkZL/hUv2jVlAfCliuXXx/bjcZ2P0TOKSZnvvT30uHljnvx+XbZ0wBeZnXDJy/Ysavhx8JSK2QfiOXC7250E2g7lk5PyNk7LFmSEq3VtyafhTf84lyb7SScDB04UdPeBNuVwsdszLUhiXlH1xZHrTcpnZF9+Wy3ZN8AnaEC4Z+UZLROHTuFwkOc7mOJeM5L/uKX4rfByXi8Uxw5bNUS5J9o0eWB0fyOVisUXcciNcUrr961q9EPGuxbJq29ks4c/+1h9xGU8XcckJfSetHUFL9EQB+yYjaIbPvtgdB/MLDo8yf1bV+YZEc68btU833tb5Jq9XoxM/LS7ntrxNvUUKXG4mruarrgarNeWQg7YFiVSz/FwetvWmqp7nS9H3QbypFHtDXD7JeuVcTNreqqoqL3cIabeG52uhhv3BCmMxQ7hsTDIJGllvV15CicpScLC/NIRCXJdRUtn6b6uErWGq78tIPNZ2ITkPGTxFLuPE/NHmalm5p3W7oA+87eDS1kCQiUipR/eUh8v9VWscyTsnbntl3T08wGXV3rLC1PtVpgqkJFtZvSrNSRqhdoQZXjY3sy+N3XwNep5BpxFThouLi5GIwOzlNmPC91laj218wqdd5o0RRi2l+sI7fYoXo32ebeAvh0othoxzadZatY57dNVi5OeSU2ly2QpKs0BKLvobG3VXy9fSserfZ9aaX6k7XUKJhUdvqaJ+duUAbkcZZaK9RopQBn7sOLLnBPMckaC8VkzloVGmDzI+/uiE4xV4gF5Ge5ZrYsnYSj2GcVmoxqvKCJkQxiV0DdVlyJL2BaqO1w6ROGpzy+N3U+lYNLOmdCqpYOSOvXgyVGGKiH4m+aN5eSnzCH6HVtoTnMu7THhgrexsIiKHFrk7xS0SIUTa4cqem02mHtUHL3WH5BC4l4fItSNZtii47pMV/E9NhCBcllLeEZJtNlW7QogQdpMEcZlmzKbyTrrJSLMqo7JArXVnSyKh0yve8DUPC0aWlC+GG2xC720T1Z2YIsZG8m75O8G00snM+HtUjpcCBszpImYpdZa9GFrHSPWQgukoZZLOezlJ40yJQ32gTXImYv7WkvHkURFRvfgwzqWgkpy1S0/RanJeinmT7Daig9VTTWSCNqjsToqdR984LQt07bq6OrA9dyFAzyK94JjPdG1AZeplXWRsoWzbvZSIxhqe4FTMDk1wx73QDAAEuEyRHMYlTCJGSl2SnYQYo0DfIJcpjHJD9ACVVoGJGDDdc5ED8vyFbPOls8IhgSIxWy253VZPmwgdl1ammlhn14aelMKpJqYy0CIW3dLzASM+tB38SAZrDAZxeQMqG7snV2KyRiNc7kWddc3hDi9ldhceRaPF4K9cMj1mokJRNU32GHoCD7UQq1Q4CMEVdzfdqJJcuqmZcO6FIbVz6nLOIcWV+h1++omd4uFDguQQhHAZ80w9Y+GXULmOQ1zuI0fs7Ph77qqiWgf9g+b40CFNb7du32aIEauKv6O+XPa0nuOtYEh7U200Cy6Rrk+hnlo1wUDCE015c/u5vuf8nLHnXKwQ3kO4NH9RR0fmAJeJS+XeR2X3WzCqEzxYSRqfd2UnX8C1pIWbuq6KtAnhE2Rs5QIuKaKyCgVcm5ig9tkCVmAPM1Z5FzkZtozggT5HPAttwo47B3C5BQmLC7cVGeFSKPdmZe6eYc+RMjWqb57Is8cc36nHcTLd1HUJ6kyFYC7djucAStSIuw20Vla6+x+YmPYakaz7xGUFnhrsbIkJ4NIjSwTEqUheLiWVRufChHPUjQ4w1Rn8efPEKtEw5E5jHiHT9vlpD7tzi+uIY+d1cS49fB8NhZTPIL+p8WS6/MVoLzG7s8bsl3Eu+WCRviIE4rwkH5cHaqlqXT0Q87wDt4Hl4PTFKiPK7NG7M6hyyHR98V1JmMiGPHlUfvbgXPr2pOiUHLFExx4no3drJPtK2KEWb7w1Dm3jXILE8JuwcCadh8uDqIcVbQId1lsejI6+J9BYZeSk7eysx0wysRiZYNKjSoFtS6shEygbaAW4ZOTfQM9AACXT10gQnWYs4SH8EebAAv+dMx1GuUzJgLhfyJUe51JsA7FlPdQDVwUEnobl5OPBELSKSqLOGtVa6kv58ps4ojzWxw9cZAPdUmpuchgWA601FVL+tCncM+kPM2qau8blIoDLYszlG/m4lFTayjg0dGjEWym7SKxS0qXW/o5K1hxPmUNm5ZmUZGDenTtHK6s9cyobEJ2rXlTCVBiS1rExFeFNXeJ0+5+MWZjiy94ol5exrr8znEtRC1dpqiDzL/XjYPuyfHpL12hFZbTvTFSNzAf+snHyAdIqZTp76Azk8qR7OFEYRmVi66fcKy38/NrFLUUN1lEucyyBVscN9+GJMAd1u0F4XQcA7j1z1OH2hOyCZK1RqZEpdwZn2KxmXiO0w66X7Xx2OlpOIJfLkeXSFtZPs7vBfVDx6aJPigrnZJTL9r3hSEyB+tYFlYh0SQfylTXYP7miGCVwayc7nXYLiPTKC7G0R512IanrV9YLd0oaK1IeyOV2NPhhMrAzp9yV9+fDVHbdyYuWpNdFVqAZskg40JhX5xByjFyfOwenSQfinyWq+ZEuqKT3T6zyB+T3aGDq+jInvauImrtQArm8jS1RwICm7lCjXPhhaQApW+VqL6paSYNcRoPm0QLnst+U7oxJ6FtGR+B4Aw5PZF4KOdPNS0W/PNV5YF7i4TMMRd30RwA0WmMCuXx4+r3H02TgrquoS6k6bA1HlKvsCvz3eXlyuDyKdBvRo8ySZsLBf1sNw+prXJeV9Yq79VKuOrnse7nCIFR6s05QHK4dnUxb+QK55KN6OPbRmM79o243QGCLF6Tb5IgRKhCyXroP6FjaXDIZhzyBJmsvtumkiKvADbcxOwFedno7kKmolDIX31PN/Pl3CE5dalIv6AK5jEezeGyjpen7DNwmwHOtKZiYcwgwyuVZ82F4K25wKSYkFyxbLCDCxia6DZ/vp9f+ejL3qaKy65/U5/MZVWV1yDSA/jcDuVwMu/DkLNNrohmBtfIjHLSMEIpE6QCjXDrWq43cti+jjkp5Xpa1c/U5ZuSY8PtktXytjkym/D5a8CP2+2IDA7+iGDVEAaFcZiPNLW2jJVGCK9WCKOBJhd8GOYhmmY5yeRxzuTl5BdBkWTvQWMz1wqn8IHz7uqxYSWlNXSOOtffHSKYcLwZZO2p5COXygtv1ClBb40rVpYrctCBEoeZ3jgY5OcZ961Zk1cbS8cfqo1cktBlK+XHMq6XBt9/STSk2ybRDkkdf7JJN+UYU7xa1PIRyGQ/7s5duLsGjG+wQLdONZv6fgeSDcS7PzJ5ZBionTmJMOzAnWWRv9hhM0D4TcTTEwR8kcee1TqYbXfapTzxUEmyfxHoaYyiXQhf19l8TOVIqlWwdDdZALblIgxUXa+NcHt1ETA2FG780l1dwABkDk0udoYnZskL56D/5FkpcL+zJRKgccNFH68FsLw1gGk/mcmmkDli4YoFmqW7mTO/KVMboB5L1AvIKYPX26XzCX2bal2bfQKqH7nIC692/Yp66tvsWSl+gSmmznvQn73EH3hwHCwXRNMhgLkX/4Y9CW51JCyrKbm/NIXAiLJMB9SWAS5h6Hp+itAAGcyohgVLPLQCLj3qk7J5J6m+oUBzKkZXZw/5MtiW+bIbmvoHGPlX36QjDTOoECSNwwNWVNS1AwsNVn08wJA8PdsBRbPCqqTCY61z1iZKqrhGzU4kFZJSj+1ULI1bEiodZBv0Qbs46FGs/djsjv1MY8iScSzF2ESUrhpGFDGpI8XEqxruRX/VqUiFcglBkyBHlaokayVuPrMFwXAOZyOhIGsU70uWTrHsc6ClBtiZ2XDPXySc0A6XRT+BS6odP61dEnuEaWWy6eIDpH9vZE8dGUN66aIadt7MXGwmyUS6lP10zbK5wwQ2i7MR2DCjNkYS+QJXXF4ffOLnasc0lGAr9xiCOboOEmq9TuBSbMBi5aDUqRDXwHX4yOmAt5F2Q3dfgsP0kYggR/fjtVIgrloXs8yog811bGGq3wLaXn+LqRdVM72/cG37j+9+wtJxTzvekoT3lWK3MfgI2hTDSlMs4TRfp6SY3Lmkq3BQuuy2ElJx3h7a85HhpRIFr3FW7hcftlfQirno9goH7vG4ymam5HPdtZeLdWTibabYI2Oclc6L1pazuCiyLhI+z/Wkl9w13gnSrd7hnb3SrzIgR72gvwl/EPJvDTG+Smz2Zdluy2/EA/+Q80bpxEpdtP8sEIgr76lXcxWPbpmh+TeLJulG/EcZlK3ZkUJBAZbTGhe2lPcP6r9256QX2/aU1r//mM5aEv+Axzd6ktLq1NzZxxdfw8mI2CeJbYGt9+ZrIJbYBglReYwgyVR1vG1x1hIhC8JkwiWudUTjhIHCPu9j1o11AvTp68w6yu9uVC90UbRj/5giP+3PHfQZpH32xvwEvi79QY/IyKyO3GeCSm1POFwT2d+tkg2bgODc8+9FMiHewwdJ5cCNm1+iNa6WF6COQsZ0d5A+9po5j1irQbV6ygRmLH0ZoTRxTUb8b5XocRTe+GZuSyOu1gBQRmedAcuuxktC1j4xkrZ8Y0F++Zl2BZCj1lqNpn3GHYNZe9Ts2VgTZndHWhWJeuyLv65KtusnCf6D7O+U3cT0rbgu1pUZxhgL5MSK8ea4CvL3eUJXn2NiT2mi5M93xzWG7+lwOe2Pj5aqsy+sOqcTt7n81ri94JyS8vPryGE04Si8lRtqlHgrsrDbIWnTw1WVxelzqulwVmtQzfnZflj63+anGbsW7a13f6/I24YQzLKY5cu6W/6yWGa8E/o2KkfPwvvyMys+EJ6Y5fk6luzlsxkuBeG1CuYy++Uznz8PAmetB5zp7zJsZ/x54lGMCl9HXfgPhw4CdzDOZy9ENXjP+HoehjyBM4XJa0vqM30e59ovXqVxantUZ/xbn0d1h077nNZBIMuNvYR8t8Z+5RDYTzvg3sM+sFDAY83OJC+dv/NDeJwDdf0sbI1PPyyWr0W/0hSZSzvhdHF0ueRzL2PLs/8bwEk1a/8rvRX8AHC7F7snw77hj38CY3Xkvgb1PXRqI4Vwi5umkTw7M+D0YhxUox80ULm230bTtvDN+D1r+juZQncal6c5dz66fV2HbnS+hJzxP5VILs6y/+ete745jBHlclfFpgqlcQviTF+M9G3rGP8FxVa5M3fMHXLZstsXMTL4dfsTljLfEzOX3YObyezBz+T2YufwezFx+DwK5nFO1PgDGEdHG+Yv6udxzQOQjUPWUmXshL9rE9O89nfFG0OKaa2P2aUEyz+ebZ7wb6o4zexP8sgus0Dm29SlYEcoYo+7kK6i4EXgg5ow3wH6Vb/IbliOwPW/yyxylfAf8D+ynxgcBKZzsAAAAAElFTkSuQmCC;sketch=1;curveFitting=1;jiggle=2;fillColor=#B2C9AB;strokeColor=#788AA3;fontColor=#46495D;" parent="1" vertex="1">
          <mxGeometry x="437.23" y="214.53" width="112.45" height="26.95" as="geometry" />
        </mxCell>
        <mxCell id="mURqfK87lyIfhzLxHdiO-17" value="" style="shape=image;verticalLabelPosition=bottom;labelBackgroundColor=none;verticalAlign=top;aspect=fixed;imageAspect=0;image=data:image/png,iVBORw0KGgoAAAANSUhEUgAAAOEAAADhCAMAAAAJbSJIAAAAw1BMVEX/////aUomKjgQFimqrLAnKzq7vL8ABiAXHC3e3uD/Z0eLjZQbIDB1eID/ZEMiJjQ+QlD/YD3/9PL/Xjrk5Ob/zsb/WjT/6ub/gmtrbXQzN0X/rJ3/jXX/cFL/3Nb/dlr/nYz/tqf/s6TLzM//fGMAAB7/l4P/vK8AAAD/ppb/4t3/kXv/x77/8O3U1dff4OFeYWuio6fw8PFHSlX/UygAAA0AACC2t7uTlJoIESWjpKgAABYAABlhY21/gYeOj5RSVV9eOLFOAAAJ00lEQVR4nO2caXuizBKGZVOCLbjgliiaaOIkY4zC5FWTjJP//6sOLkDT9AYxOX6o+9NcQjH1UL1UVzcplQAAAAAAAAAAAAAAAAAAAAAAAAAAAAAAAAAAAAAAAAAAAAAAAAAAAAAAAAAAAIDvpD2fed3C1l571vbO6M3ZaY4HQ6UxnN4UNR8pDWX0MDuvV2dkrjQsS1Esy/5zm9+6O27YobVi2a1B8/zOnYHmbC8v4qGd07w9bcTG9nT+LS5+kZmNCVTs4ThPd/Qe8NcTNoMCjeC7aQ9xF/eNrTOQtfUGHVtJ07m4AeeZELinIddUm7MRqS9sA78vrS/eNTJOhm4qPXEo2gMr+3JC20vripQQHvy0B09cu/awlQ3gwfLhsoLY7VDdVA7jItvV7g01fkfD4onDdzCnNdIjlt1jTOHN2ZQtUGlcVjN9pDe1k8bO3TPFxpu22PouTiEnhgdvR3dkm3u6UXhvJXwvl9VKS3+43ipWa5AO48PI5gUwtOjR4i7Jupz9bTIp/rw9A35AwoGjM8CDcsfpgcf7izZSd7K8ftWJ3xa1/8jf8uKNBB7vZ44ZFpZb/s1Wr9Bk8VLeGCpyNFyNv94E90jVvqiwdNcSKVSs4RRLAG65Bp0iS6h1NQjlqSquZlJbIo34rRhNYTvda+yMvDg2PAN7nN+Dt19bcy8FVzNBFYSI3wrTFgdROaw5IolPPWbDtkYFemHVVCNiNWUj+5sMLzplrGIlbqTzSpwAzJkGjbv8As+n8GpdC7Z9yoW2jMC9xoZ1XHM0WUG0pkXmwvMoXOjL9y1yUI128ZE/7WMKTgnAmNETW4UKPWdQ+LKqGttDv6Ur7IpnjDiMh2qVR++69u8iAs+g0K2j6Bl0haWZbBAPSU631GSsSIr0wnMovPqI72YoLIkSlVSkrMcn6uDUeCwk8BwKK0KFEtM+LmU4oCi0hgVLND+isDTOEcR9SY2me1xM4A8pfJIebJiqC80UP6eQOQFIU7yM+EMKm7l6YpYvFKDyKPSLKyzdys8YNCzp3YCXsr6nPLnKqTA0XO1W+jo2zKnwefqVdtqQreaHqaNqappmGtfBRs+h8GiINA3FhjSFTr0fkWndnlwGTo+gJaevHOZWTuSLY27NsqRCwrAS6Hh7xRSqDjqxrWb++4fiQWzJLZpWsZfxG9/4Mgr/OaRhpe/SFcaYWYUeszosDOFUqvpUMxzSDaeyk1C40bICtGUiUVYhd/Fu8RI7qeqT399mBIYgXaDQfFvdU+xUM1jkVuixRdijQY+pX676tNvS/FQdI0iE0xQ6wTXtzYTvph71RWmFTWZPtEde84k52DZkqk+bbBONJCT/pClUyT4Ys13lVViaMzTYo32QuqxW3JJJZ36l/ESmpmomIr2iKjxZqIYRzhb4UxyjTFHonKAqZNQz7N5xp63LiGJHrM+voZQTtX/6Wt/0DUIjU6GzXa7LZf2thnALtPQzCuvXJ4wNxQ96edgaRVuJ9IZqjcQKF3Xs5ZtoffTMX9TTnZOl0HTck4W7xMdVbU0qRH3fPUHL8KglJmuYjCPUrMDqiRXi4z3Cy2G6qeIe0xWiHWaxw6JobjIK2VnbnmeaQrz60p0KbmDgL5MQmmkfaqmYUBWiHR4Of4e9FOTnU0gvE9pJDKnLSGsqVOgm46Fznd5LeglEY6n6i3gaNirfu/kUfls/7Ccty9wR19ZYEKkKNXLIKCed99h+cyikJ9/CsVQ44S8ThRWXuIYPQtQZv05auMnT0DKfwqLzobB+gY3mr5mLWICpCpfkoOh/Jm3+08+j8JmZmIY5Tclj5jTiDaf3xN/PzEVRXvovY5EMp86nm0shuxxljx6H7Lx0JEhq/HueB6vcdZpNbOHUF3kUUs9HRSp4i0fR8Qu+B9hQI6lQTywOiZu0QsGpBY58QSUR84Dir0u5iik0sjuCRRVyz9bwEVSD+Qon2+xVTCFan0uh/A4UTSJ3wsA8yEyHX2ulx/zhJ2ptguE0GUtRdo9WFyhcZSzeEoU5Rpr5F0vC3Hrpq5q4lLlY48+HKBN1P5lBneBKWmGeDTZaELmVDKwOsc1cFM34AZnTYHl8jvnwiyVvwSEFPGsjD3FNBFmbapA17gk5vbrJD5Q2cqT91a0nflF4gi9RiWtlQ6DQJMOCNWvz2EmTfq46dA/oNah8DZe3BewmIsjVU6mGLffoq6dtOjGdYG3+/fhT0s/VD/rmDbUYbE1zDa/WkDPYJHmWipI6556leAVMBPEzCaETHH/CGjq9IzZpS3fFvunyz8qS93M+mVnj63Js6PB3qXK2RBXD3WEr5u3pfqyy4RgbynFN+sEv+7H0PLdyjEA2O4iplTwKouXC5G+6FsqqRDmfJ6/9Mv4gJzg1SR1/T871Zr1YrKqYUE9hRGqfbd5yc+4U1pCpsLTCi2qO+Vrb6KtlvSJdTayg/k7f9Z3UzgCKVv9uuo5qapWKWcHqpawzUcdKb/uhI9tUG+wzUX49LQaZmkbuRHErwipCGiKe0Y9HlaqZuR+rCHdZAuzj50FNb9qQ08hbY0xYVX0Hc5s+W7AMP97ip695CjkHTKPTB93xUK478nbzN1knDn4agqzterOkSnRUrEJFjFhphXP2tqH9EN3kPbL6KhFF9mrf39A2yRxjdcVfPRmT8gfNUE1n5HVyEyRWyKwvKeljTrdDmaZq8757q75TdkhrpRfhCrj6mtnDcd6JGuMiINpIrJB74MvCY3Ij0x1bvJ22RZDeJHVQfUVfHxNrfHdJGGpkZpS9J1JI+zoPjwk+dnTH4kUyf7f0ZXON9RfTqB1Wdx/RhpizjRU6CeWTYRxHVAnWC/rDsVhHJxV41aeDxB4+PLYtYRgFO97u5ldF00xT297/V7s67joY9Yjr+CR7EP8WTE6Gf1/vK+FEd/+6nJDrqfjh4T3ansoH+nuKsuibGWuQ9njWEykUHo560fVqlXLuR4y70BdX9Mw6xtfX67W+iN+B4LsnezQj/W2OBQnAhX2dx22kdmdAGfzDBICr8cK+XeMotKzfrMnNm3LGp85lxZBxJn0fQOWO3aGeZzZrFrVGl6WQNdLY9pj/HXB30KF/pmcPpM5H/RzUjMayJb7lDpNVmu2FdUPqtq/VmMp9gNYeDLMhHBc+SftdzIhAhAte6te/NJq3f4imav35VmeLMUutLXL+XQwiWbV51aj/G03s23rLHuR1sXuX/O0Ie3qJAkvHv09zcLA1bBfoRfNxOKyGhAnCxfXBiOdZb7/6yx2/iPnddDTs5f7TNj9Ksz2bF4lfRNdrX9hEDwAAAAAAAAAAAAAAAAAAAAAAAAAAAAAAAAAAAAAAAAAAAAAAAAAAAAAAAAAAAHwT/wMKztgkNzRGNgAAAABJRU5ErkJggg==;sketch=1;curveFitting=1;jiggle=2;fillColor=#B2C9AB;strokeColor=#788AA3;fontColor=#46495D;" parent="1" vertex="1">
          <mxGeometry x="585" y="198" width="60" height="60" as="geometry" />
        </mxCell>
        <mxCell id="mURqfK87lyIfhzLxHdiO-18" value="" style="shape=image;verticalLabelPosition=bottom;labelBackgroundColor=none;verticalAlign=top;aspect=fixed;imageAspect=0;image=data:image/png,iVBORw0KGgoAAAANSUhEUgAAAcsAAABuCAMAAAB/esicAAAAYFBMVEX///8ptegAsOfg8vsXsufC5vei2vPq9/wgs+j5/f4AruZgw+w/u+q04PW74/ZxyO70+/7K6fiT1PHk9PvR7PlUwOvY7/qFz/B2yu42uOmb1/Kd2PKr3fR+ze+14fVZweymo7aSAAARwUlEQVR4nO1dCZOrrBKNSCImJkYTY8z6///lkwaRpVGcb+ZmeZ6qWzXXhQAHmt7AxWLG/xuW5b0ssBvHy71+pP+6OjN+jIIRyiiJjvaNQ8ZvUHJ7Ra1m/ADbdSSwXpo3YsLEDVK/pmYzJuLQUdlylhh3IqZuLD0vz3gr5IqxiN71GzeqbkTNq2o3YwpIz1hE9RtVT3JE4ldVb0Y4DjqXhpBlOsmzkP0AxF4uqc7l7mUVnBGMmcvvwczl92Dm8nswc/k9mLn8WMSng3XhR1weTrPB+VqkNSWERCv92k+4XEVtMbSe4yevw4EJemikWf7TuVxGshhmTfEZ/wwp633llRKRU7mMK/UCY/PMfBFqjRxG7pKHaVymd6K59ujXxsLS4nLP87OK6O6yzQ+F0LGqnLjwf4dOWssDEcvmJC5vhBqFkN+v5Ttgf2/VAdZifRIXTmvG6PA7HiTtm+tk/LlpOJlctvw0PC1kApdFQ60iyOm3a/kOOKoRS0txZUV/Gipakr+I/hY2l+2PtIIjmMtkgxTwB+Lj5ThpwXm5tPwHLulfBJlil4p22SxPYVxuS32hVM9/o5UJ7eTGG1G5Me/G5cIWkIIk46qXS+s5dfXXK/l6cN6idozvrWtvxWWJ0mHOMy+XKLrl5KsA/WAlmL4dl4sGkZL/hUv2jVlAfCliuXXx/bjcZ2P0TOKSZnvvT30uHljnvx+XbZ0wBeZnXDJy/Ysavhx8JSK2QfiOXC7250E2g7lk5PyNk7LFmSEq3VtyafhTf84lyb7SScDB04UdPeBNuVwsdszLUhiXlH1xZHrTcpnZF9+Wy3ZN8AnaEC4Z+UZLROHTuFwkOc7mOJeM5L/uKX4rfByXi8Uxw5bNUS5J9o0eWB0fyOVisUXcciNcUrr961q9EPGuxbJq29ks4c/+1h9xGU8XcckJfSetHUFL9EQB+yYjaIbPvtgdB/MLDo8yf1bV+YZEc68btU833tb5Jq9XoxM/LS7ntrxNvUUKXG4mruarrgarNeWQg7YFiVSz/FwetvWmqp7nS9H3QbypFHtDXD7JeuVcTNreqqoqL3cIabeG52uhhv3BCmMxQ7hsTDIJGllvV15CicpScLC/NIRCXJdRUtn6b6uErWGq78tIPNZ2ITkPGTxFLuPE/NHmalm5p3W7oA+87eDS1kCQiUipR/eUh8v9VWscyTsnbntl3T08wGXV3rLC1PtVpgqkJFtZvSrNSRqhdoQZXjY3sy+N3XwNep5BpxFThouLi5GIwOzlNmPC91laj218wqdd5o0RRi2l+sI7fYoXo32ebeAvh0othoxzadZatY57dNVi5OeSU2ly2QpKs0BKLvobG3VXy9fSserfZ9aaX6k7XUKJhUdvqaJ+duUAbkcZZaK9RopQBn7sOLLnBPMckaC8VkzloVGmDzI+/uiE4xV4gF5Ge5ZrYsnYSj2GcVmoxqvKCJkQxiV0DdVlyJL2BaqO1w6ROGpzy+N3U+lYNLOmdCqpYOSOvXgyVGGKiH4m+aN5eSnzCH6HVtoTnMu7THhgrexsIiKHFrk7xS0SIUTa4cqem02mHtUHL3WH5BC4l4fItSNZtii47pMV/E9NhCBcllLeEZJtNlW7QogQdpMEcZlmzKbyTrrJSLMqo7JArXVnSyKh0yve8DUPC0aWlC+GG2xC720T1Z2YIsZG8m75O8G00snM+HtUjpcCBszpImYpdZa9GFrHSPWQgukoZZLOezlJ40yJQ32gTXImYv7WkvHkURFRvfgwzqWgkpy1S0/RanJeinmT7Daig9VTTWSCNqjsToqdR984LQt07bq6OrA9dyFAzyK94JjPdG1AZeplXWRsoWzbvZSIxhqe4FTMDk1wx73QDAAEuEyRHMYlTCJGSl2SnYQYo0DfIJcpjHJD9ACVVoGJGDDdc5ED8vyFbPOls8IhgSIxWy253VZPmwgdl1ammlhn14aelMKpJqYy0CIW3dLzASM+tB38SAZrDAZxeQMqG7snV2KyRiNc7kWddc3hDi9ldhceRaPF4K9cMj1mokJRNU32GHoCD7UQq1Q4CMEVdzfdqJJcuqmZcO6FIbVz6nLOIcWV+h1++omd4uFDguQQhHAZ80w9Y+GXULmOQ1zuI0fs7Ph77qqiWgf9g+b40CFNb7du32aIEauKv6O+XPa0nuOtYEh7U200Cy6Rrk+hnlo1wUDCE015c/u5vuf8nLHnXKwQ3kO4NH9RR0fmAJeJS+XeR2X3WzCqEzxYSRqfd2UnX8C1pIWbuq6KtAnhE2Rs5QIuKaKyCgVcm5ig9tkCVmAPM1Z5FzkZtozggT5HPAttwo47B3C5BQmLC7cVGeFSKPdmZe6eYc+RMjWqb57Is8cc36nHcTLd1HUJ6kyFYC7djucAStSIuw20Vla6+x+YmPYakaz7xGUFnhrsbIkJ4NIjSwTEqUheLiWVRufChHPUjQ4w1Rn8efPEKtEw5E5jHiHT9vlpD7tzi+uIY+d1cS49fB8NhZTPIL+p8WS6/MVoLzG7s8bsl3Eu+WCRviIE4rwkH5cHaqlqXT0Q87wDt4Hl4PTFKiPK7NG7M6hyyHR98V1JmMiGPHlUfvbgXPr2pOiUHLFExx4no3drJPtK2KEWb7w1Dm3jXILE8JuwcCadh8uDqIcVbQId1lsejI6+J9BYZeSk7eysx0wysRiZYNKjSoFtS6shEygbaAW4ZOTfQM9AACXT10gQnWYs4SH8EebAAv+dMx1GuUzJgLhfyJUe51JsA7FlPdQDVwUEnobl5OPBELSKSqLOGtVa6kv58ps4ojzWxw9cZAPdUmpuchgWA601FVL+tCncM+kPM2qau8blIoDLYszlG/m4lFTayjg0dGjEWym7SKxS0qXW/o5K1hxPmUNm5ZmUZGDenTtHK6s9cyobEJ2rXlTCVBiS1rExFeFNXeJ0+5+MWZjiy94ol5exrr8znEtRC1dpqiDzL/XjYPuyfHpL12hFZbTvTFSNzAf+snHyAdIqZTp76Azk8qR7OFEYRmVi66fcKy38/NrFLUUN1lEucyyBVscN9+GJMAd1u0F4XQcA7j1z1OH2hOyCZK1RqZEpdwZn2KxmXiO0w66X7Xx2OlpOIJfLkeXSFtZPs7vBfVDx6aJPigrnZJTL9r3hSEyB+tYFlYh0SQfylTXYP7miGCVwayc7nXYLiPTKC7G0R512IanrV9YLd0oaK1IeyOV2NPhhMrAzp9yV9+fDVHbdyYuWpNdFVqAZskg40JhX5xByjFyfOwenSQfinyWq+ZEuqKT3T6zyB+T3aGDq+jInvauImrtQArm8jS1RwICm7lCjXPhhaQApW+VqL6paSYNcRoPm0QLnst+U7oxJ6FtGR+B4Aw5PZF4KOdPNS0W/PNV5YF7i4TMMRd30RwA0WmMCuXx4+r3H02TgrquoS6k6bA1HlKvsCvz3eXlyuDyKdBvRo8ySZsLBf1sNw+prXJeV9Yq79VKuOrnse7nCIFR6s05QHK4dnUxb+QK55KN6OPbRmM79o243QGCLF6Tb5IgRKhCyXroP6FjaXDIZhzyBJmsvtumkiKvADbcxOwFedno7kKmolDIX31PN/Pl3CE5dalIv6AK5jEezeGyjpen7DNwmwHOtKZiYcwgwyuVZ82F4K25wKSYkFyxbLCDCxia6DZ/vp9f+ejL3qaKy65/U5/MZVWV1yDSA/jcDuVwMu/DkLNNrohmBtfIjHLSMEIpE6QCjXDrWq43cti+jjkp5Xpa1c/U5ZuSY8PtktXytjkym/D5a8CP2+2IDA7+iGDVEAaFcZiPNLW2jJVGCK9WCKOBJhd8GOYhmmY5yeRxzuTl5BdBkWTvQWMz1wqn8IHz7uqxYSWlNXSOOtffHSKYcLwZZO2p5COXygtv1ClBb40rVpYrctCBEoeZ3jgY5OcZ961Zk1cbS8cfqo1cktBlK+XHMq6XBt9/STSk2ybRDkkdf7JJN+UYU7xa1PIRyGQ/7s5duLsGjG+wQLdONZv6fgeSDcS7PzJ5ZBionTmJMOzAnWWRv9hhM0D4TcTTEwR8kcee1TqYbXfapTzxUEmyfxHoaYyiXQhf19l8TOVIqlWwdDdZALblIgxUXa+NcHt1ETA2FG780l1dwABkDk0udoYnZskL56D/5FkpcL+zJRKgccNFH68FsLw1gGk/mcmmkDli4YoFmqW7mTO/KVMboB5L1AvIKYPX26XzCX2bal2bfQKqH7nIC692/Yp66tvsWSl+gSmmznvQn73EH3hwHCwXRNMhgLkX/4Y9CW51JCyrKbm/NIXAiLJMB9SWAS5h6Hp+itAAGcyohgVLPLQCLj3qk7J5J6m+oUBzKkZXZw/5MtiW+bIbmvoHGPlX36QjDTOoECSNwwNWVNS1AwsNVn08wJA8PdsBRbPCqqTCY61z1iZKqrhGzU4kFZJSj+1ULI1bEiodZBv0Qbs46FGs/djsjv1MY8iScSzF2ESUrhpGFDGpI8XEqxruRX/VqUiFcglBkyBHlaokayVuPrMFwXAOZyOhIGsU70uWTrHsc6ClBtiZ2XDPXySc0A6XRT+BS6odP61dEnuEaWWy6eIDpH9vZE8dGUN66aIadt7MXGwmyUS6lP10zbK5wwQ2i7MR2DCjNkYS+QJXXF4ffOLnasc0lGAr9xiCOboOEmq9TuBSbMBi5aDUqRDXwHX4yOmAt5F2Q3dfgsP0kYggR/fjtVIgrloXs8yog811bGGq3wLaXn+LqRdVM72/cG37j+9+wtJxTzvekoT3lWK3MfgI2hTDSlMs4TRfp6SY3Lmkq3BQuuy2ElJx3h7a85HhpRIFr3FW7hcftlfQirno9goH7vG4ymam5HPdtZeLdWTibabYI2Oclc6L1pazuCiyLhI+z/Wkl9w13gnSrd7hnb3SrzIgR72gvwl/EPJvDTG+Smz2Zdluy2/EA/+Q80bpxEpdtP8sEIgr76lXcxWPbpmh+TeLJulG/EcZlK3ZkUJBAZbTGhe2lPcP6r9256QX2/aU1r//mM5aEv+Axzd6ktLq1NzZxxdfw8mI2CeJbYGt9+ZrIJbYBglReYwgyVR1vG1x1hIhC8JkwiWudUTjhIHCPu9j1o11AvTp68w6yu9uVC90UbRj/5giP+3PHfQZpH32xvwEvi79QY/IyKyO3GeCSm1POFwT2d+tkg2bgODc8+9FMiHewwdJ5cCNm1+iNa6WF6COQsZ0d5A+9po5j1irQbV6ygRmLH0ZoTRxTUb8b5XocRTe+GZuSyOu1gBQRmedAcuuxktC1j4xkrZ8Y0F++Zl2BZCj1lqNpn3GHYNZe9Ts2VgTZndHWhWJeuyLv65KtusnCf6D7O+U3cT0rbgu1pUZxhgL5MSK8ea4CvL3eUJXn2NiT2mi5M93xzWG7+lwOe2Pj5aqsy+sOqcTt7n81ri94JyS8vPryGE04Si8lRtqlHgrsrDbIWnTw1WVxelzqulwVmtQzfnZflj63+anGbsW7a13f6/I24YQzLKY5cu6W/6yWGa8E/o2KkfPwvvyMys+EJ6Y5fk6luzlsxkuBeG1CuYy++Uznz8PAmetB5zp7zJsZ/x54lGMCl9HXfgPhw4CdzDOZy9ENXjP+HoehjyBM4XJa0vqM30e59ovXqVxantUZ/xbn0d1h077nNZBIMuNvYR8t8Z+5RDYTzvg3sM+sFDAY83OJC+dv/NDeJwDdf0sbI1PPyyWr0W/0hSZSzvhdHF0ueRzL2PLs/8bwEk1a/8rvRX8AHC7F7snw77hj38CY3Xkvgb1PXRqI4Vwi5umkTw7M+D0YhxUox80ULm230bTtvDN+D1r+juZQncal6c5dz66fV2HbnS+hJzxP5VILs6y/+ete745jBHlclfFpgqlcQviTF+M9G3rGP8FxVa5M3fMHXLZstsXMTL4dfsTljLfEzOX3YObyezBz+T2YufwezFx+DwK5nFO1PgDGEdHG+Yv6udxzQOQjUPWUmXshL9rE9O89nfFG0OKaa2P2aUEyz+ebZ7wb6o4zexP8sgus0Dm29SlYEcoYo+7kK6i4EXgg5ow3wH6Vb/IbliOwPW/yyxylfAf8D+ynxgcBKZzsAAAAAElFTkSuQmCC;sketch=1;curveFitting=1;jiggle=2;fillColor=#B2C9AB;strokeColor=#788AA3;fontColor=#46495D;" parent="1" vertex="1">
          <mxGeometry x="796" y="218.00000000000003" width="83.45" height="20" as="geometry" />
        </mxCell>
        <mxCell id="mURqfK87lyIfhzLxHdiO-19" value="" style="rounded=1;whiteSpace=wrap;html=1;sketch=1;curveFitting=1;jiggle=2;labelBackgroundColor=none;fillColor=#B2C9AB;strokeColor=#788AA3;fontColor=#46495D;" parent="1" vertex="1">
          <mxGeometry x="209.5" y="382" width="692.5" height="122" as="geometry" />
        </mxCell>
        <mxCell id="mURqfK87lyIfhzLxHdiO-20" value="&lt;font style=&quot;font-size: 22px;&quot;&gt;Workflow/ CICD&lt;/font&gt;" style="text;html=1;align=center;verticalAlign=middle;resizable=0;points=[];autosize=1;strokeColor=none;fillColor=none;sketch=1;curveFitting=1;jiggle=2;labelBackgroundColor=none;fontColor=#46495D;" parent="1" vertex="1">
          <mxGeometry x="455.69" y="385" width="174" height="38" as="geometry" />
        </mxCell>
        <mxCell id="mURqfK87lyIfhzLxHdiO-21" value="" style="dashed=0;outlineConnect=0;html=1;align=center;labelPosition=center;verticalLabelPosition=bottom;verticalAlign=top;shape=mxgraph.weblogos.github;labelBackgroundColor=none;fillColor=#B2C9AB;fontColor=#46495D;strokeColor=#788AA3;" parent="1" vertex="1">
          <mxGeometry x="352.87" y="429.5" width="67" height="64" as="geometry" />
        </mxCell>
        <mxCell id="mURqfK87lyIfhzLxHdiO-22" value="" style="verticalLabelPosition=bottom;html=1;verticalAlign=top;align=center;strokeColor=#788AA3;shape=mxgraph.azure.git_repository;labelBackgroundColor=none;fillColor=#B2C9AB;fontColor=#46495D;" parent="1" vertex="1">
          <mxGeometry x="450.5" y="427" width="75.77" height="69" as="geometry" />
        </mxCell>
        <mxCell id="mURqfK87lyIfhzLxHdiO-23" value="" style="shape=image;verticalLabelPosition=bottom;labelBackgroundColor=none;verticalAlign=top;aspect=fixed;imageAspect=0;image=data:image/png,iVBORw0KGgoAAAANSUhEUgAAAOEAAADhCAMAAAAJbSJIAAAAw1BMVEX/////aUomKjgQFimqrLAnKzq7vL8ABiAXHC3e3uD/Z0eLjZQbIDB1eID/ZEMiJjQ+QlD/YD3/9PL/Xjrk5Ob/zsb/WjT/6ub/gmtrbXQzN0X/rJ3/jXX/cFL/3Nb/dlr/nYz/tqf/s6TLzM//fGMAAB7/l4P/vK8AAAD/ppb/4t3/kXv/x77/8O3U1dff4OFeYWuio6fw8PFHSlX/UygAAA0AACC2t7uTlJoIESWjpKgAABYAABlhY21/gYeOj5RSVV9eOLFOAAAJ00lEQVR4nO2caXuizBKGZVOCLbjgliiaaOIkY4zC5FWTjJP//6sOLkDT9AYxOX6o+9NcQjH1UL1UVzcplQAAAAAAAAAAAAAAAAAAAAAAAAAAAAAAAAAAAAAAAAAAAAAAAAAAAAAAAAAAAIDvpD2fed3C1l571vbO6M3ZaY4HQ6UxnN4UNR8pDWX0MDuvV2dkrjQsS1Esy/5zm9+6O27YobVi2a1B8/zOnYHmbC8v4qGd07w9bcTG9nT+LS5+kZmNCVTs4ThPd/Qe8NcTNoMCjeC7aQ9xF/eNrTOQtfUGHVtJ07m4AeeZELinIddUm7MRqS9sA78vrS/eNTJOhm4qPXEo2gMr+3JC20vripQQHvy0B09cu/awlQ3gwfLhsoLY7VDdVA7jItvV7g01fkfD4onDdzCnNdIjlt1jTOHN2ZQtUGlcVjN9pDe1k8bO3TPFxpu22PouTiEnhgdvR3dkm3u6UXhvJXwvl9VKS3+43ipWa5AO48PI5gUwtOjR4i7Jupz9bTIp/rw9A35AwoGjM8CDcsfpgcf7izZSd7K8ftWJ3xa1/8jf8uKNBB7vZ44ZFpZb/s1Wr9Bk8VLeGCpyNFyNv94E90jVvqiwdNcSKVSs4RRLAG65Bp0iS6h1NQjlqSquZlJbIo34rRhNYTvda+yMvDg2PAN7nN+Dt19bcy8FVzNBFYSI3wrTFgdROaw5IolPPWbDtkYFemHVVCNiNWUj+5sMLzplrGIlbqTzSpwAzJkGjbv8As+n8GpdC7Z9yoW2jMC9xoZ1XHM0WUG0pkXmwvMoXOjL9y1yUI128ZE/7WMKTgnAmNETW4UKPWdQ+LKqGttDv6Ur7IpnjDiMh2qVR++69u8iAs+g0K2j6Bl0haWZbBAPSU631GSsSIr0wnMovPqI72YoLIkSlVSkrMcn6uDUeCwk8BwKK0KFEtM+LmU4oCi0hgVLND+isDTOEcR9SY2me1xM4A8pfJIebJiqC80UP6eQOQFIU7yM+EMKm7l6YpYvFKDyKPSLKyzdys8YNCzp3YCXsr6nPLnKqTA0XO1W+jo2zKnwefqVdtqQreaHqaNqappmGtfBRs+h8GiINA3FhjSFTr0fkWndnlwGTo+gJaevHOZWTuSLY27NsqRCwrAS6Hh7xRSqDjqxrWb++4fiQWzJLZpWsZfxG9/4Mgr/OaRhpe/SFcaYWYUeszosDOFUqvpUMxzSDaeyk1C40bICtGUiUVYhd/Fu8RI7qeqT399mBIYgXaDQfFvdU+xUM1jkVuixRdijQY+pX676tNvS/FQdI0iE0xQ6wTXtzYTvph71RWmFTWZPtEde84k52DZkqk+bbBONJCT/pClUyT4Ys13lVViaMzTYo32QuqxW3JJJZ36l/ESmpmomIr2iKjxZqIYRzhb4UxyjTFHonKAqZNQz7N5xp63LiGJHrM+voZQTtX/6Wt/0DUIjU6GzXa7LZf2thnALtPQzCuvXJ4wNxQ96edgaRVuJ9IZqjcQKF3Xs5ZtoffTMX9TTnZOl0HTck4W7xMdVbU0qRH3fPUHL8KglJmuYjCPUrMDqiRXi4z3Cy2G6qeIe0xWiHWaxw6JobjIK2VnbnmeaQrz60p0KbmDgL5MQmmkfaqmYUBWiHR4Of4e9FOTnU0gvE9pJDKnLSGsqVOgm46Fznd5LeglEY6n6i3gaNirfu/kUfls/7Ccty9wR19ZYEKkKNXLIKCed99h+cyikJ9/CsVQ44S8ThRWXuIYPQtQZv05auMnT0DKfwqLzobB+gY3mr5mLWICpCpfkoOh/Jm3+08+j8JmZmIY5Tclj5jTiDaf3xN/PzEVRXvovY5EMp86nm0shuxxljx6H7Lx0JEhq/HueB6vcdZpNbOHUF3kUUs9HRSp4i0fR8Qu+B9hQI6lQTywOiZu0QsGpBY58QSUR84Dir0u5iik0sjuCRRVyz9bwEVSD+Qon2+xVTCFan0uh/A4UTSJ3wsA8yEyHX2ulx/zhJ2ptguE0GUtRdo9WFyhcZSzeEoU5Rpr5F0vC3Hrpq5q4lLlY48+HKBN1P5lBneBKWmGeDTZaELmVDKwOsc1cFM34AZnTYHl8jvnwiyVvwSEFPGsjD3FNBFmbapA17gk5vbrJD5Q2cqT91a0nflF4gi9RiWtlQ6DQJMOCNWvz2EmTfq46dA/oNah8DZe3BewmIsjVU6mGLffoq6dtOjGdYG3+/fhT0s/VD/rmDbUYbE1zDa/WkDPYJHmWipI6556leAVMBPEzCaETHH/CGjq9IzZpS3fFvunyz8qS93M+mVnj63Js6PB3qXK2RBXD3WEr5u3pfqyy4RgbynFN+sEv+7H0PLdyjEA2O4iplTwKouXC5G+6FsqqRDmfJ6/9Mv4gJzg1SR1/T871Zr1YrKqYUE9hRGqfbd5yc+4U1pCpsLTCi2qO+Vrb6KtlvSJdTayg/k7f9Z3UzgCKVv9uuo5qapWKWcHqpawzUcdKb/uhI9tUG+wzUX49LQaZmkbuRHErwipCGiKe0Y9HlaqZuR+rCHdZAuzj50FNb9qQ08hbY0xYVX0Hc5s+W7AMP97ip695CjkHTKPTB93xUK478nbzN1knDn4agqzterOkSnRUrEJFjFhphXP2tqH9EN3kPbL6KhFF9mrf39A2yRxjdcVfPRmT8gfNUE1n5HVyEyRWyKwvKeljTrdDmaZq8757q75TdkhrpRfhCrj6mtnDcd6JGuMiINpIrJB74MvCY3Ij0x1bvJ22RZDeJHVQfUVfHxNrfHdJGGpkZpS9J1JI+zoPjwk+dnTH4kUyf7f0ZXON9RfTqB1Wdx/RhpizjRU6CeWTYRxHVAnWC/rDsVhHJxV41aeDxB4+PLYtYRgFO97u5ldF00xT297/V7s67joY9Yjr+CR7EP8WTE6Gf1/vK+FEd/+6nJDrqfjh4T3ansoH+nuKsuibGWuQ9njWEykUHo560fVqlXLuR4y70BdX9Mw6xtfX67W+iN+B4LsnezQj/W2OBQnAhX2dx22kdmdAGfzDBICr8cK+XeMotKzfrMnNm3LGp85lxZBxJn0fQOWO3aGeZzZrFrVGl6WQNdLY9pj/HXB30KF/pmcPpM5H/RzUjMayJb7lDpNVmu2FdUPqtq/VmMp9gNYeDLMhHBc+SftdzIhAhAte6te/NJq3f4imav35VmeLMUutLXL+XQwiWbV51aj/G03s23rLHuR1sXuX/O0Ie3qJAkvHv09zcLA1bBfoRfNxOKyGhAnCxfXBiOdZb7/6yx2/iPnddDTs5f7TNj9Ksz2bF4lfRNdrX9hEDwAAAAAAAAAAAAAAAAAAAAAAAAAAAAAAAAAAAAAAAAAAAAAAAAAAAAAAAAAAAHwT/wMKztgkNzRGNgAAAABJRU5ErkJggg==;sketch=1;curveFitting=1;jiggle=2;fillColor=#B2C9AB;strokeColor=#788AA3;fontColor=#46495D;" parent="1" vertex="1">
          <mxGeometry x="556.23" y="422" width="74" height="74" as="geometry" />
        </mxCell>
        <mxCell id="mURqfK87lyIfhzLxHdiO-24" value="" style="shape=image;verticalLabelPosition=bottom;labelBackgroundColor=none;verticalAlign=top;aspect=fixed;imageAspect=0;image=data:image/png,iVBORw0KGgoAAAANSUhEUgAAAOEAAADhCAMAAAAJbSJIAAAAkFBMVEX///8giP95uP8Agf8Af/8Agv+ix/8ahv8Aff8vkP8RhP89kv9ztf9wtP9Gl//7/f/o8v/y+P/t9f9ZoP/2+v/X5//l8P+91//F3P8iiv+Nu/9Snf/Q4/+bw/99sv+61f+vz/9zrf9np/+qzP9+s/9rqf/d6/+HuP+Wxv+BvP/J3/+ZyP+hzP+JwP+u0//C2P/J1hgOAAAWt0lEQVR4nO1dCZPiuA6GdoKJuQlXCPfZzZvu/v//7hEgsnzGDs10pmpVu1VbOyHjL5ZlSZY+12ou0pvMlqu4GyVJEnXT7bxxGTr97h+R2TylAQkprdN6/fovpYwRkuwa498e2U9Ib7oLCKMZNFkoC9jh8tsDfFLGK0p04BDIZDn47VGWl0saMBu+u7Bg2//tkZaTcRoUw8sx/oN2Z3h0xXfDSJa/PWBfaRDmji+TsP5P2Zxhl2hAXPeIMCQkZKHWtAbb3x62u6wV+0lDEkbpatnYfE83jeU2TYg6yWFy+u2RO8ohkOEF6fwyEh8aTs9REEoPks2vDNhTeqk4bhp094Yd7zRPpNlu/gMGZxAJ2sfI0ap6s24gPE8Of2ugZWUQ4UlhwWpS9ItFLCg1Wf2NYZaXkQAwSJ1MxyzBek2qbVJbCCCla9efLbF3UGlFTdGaIumo+Ae5nPDqDaprbg5on/e1ijH6bTB7zfielg0yGcR7kHP+a0qqGWxMEMCwRPS+RxC7Pz+8HxBkZUgp92vT5C+Y//TofkCWfCGRRclX8FkMqpfCQTraVNbgaDy7FG79VznDV6qgnsago0owe0nDgBCSNHrFb4FNg+xfM87SMoMppLH4J8M4387D+rToNSP4TpS+aqglhZsZKm70ExztBnFRPmYBXyqs1r4/gwUUiPM0SoTwiIaNgjcdch+VMg+f6PXSzXHIOrqVI3nSsu8kPcg/Fn6MvylctwLRZPabdVlocLa+a8N3nVcO2VOO+Xdn0uiXuowbS6wuHSxp8v3KMXvJAOI7IlmSWJ8zDY6WTP46n0S6e+2wPQQUi8nRa4ubGHEaw435dYnpe/2ewEwFshXJEYaNpZg9pKRrdHL2+dcIq7Lrj3I7o7paOULWqE1SMa9GA5N3DUrPYsMTf1umuZKq9h0hvCozE+1OmBg89B3YmmI/76/IKh94oKwbAWFtcJRyxcFWCwE+GanIWUYOQxMPiAivTngiWRymy1b18l2UVcNzG4AlVReWjPAaIDWl1RhrMha5iyR7SL8kC9ApdSNXEdZO0rkUDVTvbJ7rffLSkbvKJlc8om7jGoTZ2aLoB5CuPI3gyAeVOOO3fXAtwtpwJ1ocxqR9FBIGZfMhPyvbfNGk6p/pEV6tZV2wODQRbSoEwqQwZv4bkj6GwzRnKiaEtd5KOOYPJSMV5f+/EhFUfhijoKhZENZq4whbHGlvz/1AjXn+BYF50HiRFoTieYwUKeVeDavEKQ0g3Kh/ZkVY6/OKG0lNYW1X4qgNpkFjFewIr7FgoodyftjnaoSIeThHNA5YEcILeHwiwkOlEOaWxl9L0b5YaS1tlbOlom8jKcCOVcnSpDkKTSBg2y1aeLcIxOQo7LH2vNxfEptGue748lwlpt/9iuR+qe64yIRwTa1e2yB3davhtTW8Pe++WEJTp/KJ6qlanjcPddRYVotw2ZSip0hOu63zGa5G9NSHD65uiBqEi0iue1MtFGR+opeO3FV6dXNwoSAcbKWTDG0WIw8tqrHhc9OuWYgyQiWhqK2bGuZaUZFMFD9+UUswRISnrpwUXmmziQ3Ii1SkXmEMn1yJ5jDC3lmqbSctAwA4jWSvHrqrUKOaIoSzRFRQnYW5C2Rp6PHFA3eWA6ipnKMGhHMp+UQtR/pzUNJK7PeZwBGwkozi+iYqaMjMg++Bv1qhk3w48QskH2QnAoMJPFiOXJZQq1CJ0OkuYE3lDawRagAaLcxNevCc/Ll+Uwa8UuFi+AM+gQUZQkgw09Yrh+wrvKhE8rOWcvNMsLMfXfP6OF1W5PdkYixlSsXmhKSovgIcpIr4pCBQbyKf5fdafCkWldLUssxGNacQTyKVt/1D8zaNlAbdwsLaE39NxaYQbdN1JgcE/XNCgoDuiku/e7wKrkqG9CF8sWlKmAeniUvRAV+0ymeqgFxQCXPJOpgj6AFllQjuJVlxqxlsSr2APPmClwsqJS3TZbfjAMPKBBWinHDbi2+yeoQ2ThpVpFJIkTXKwZDYayWdcPTIqtkyk8kczSJlHgVNDey/VnCj4LIVziK2jvHdKcU/a1Ym7tWKAJExl21jdBDyN2W3mr8mRwyRkqjIu+wtxSOMZtUBKr3qJNlYTM5kTsT8RlBtFb3LUkoahuFuql2Q/X1KpAw/q7KR4XIJpewMJc3ufIY908FpvUoC+TnWqkxhd4H0W0p6hjJCaCs+bs+H7S6OWBAqfQrUSowx+d4v5+f5srG5/JjLOrhsGreX7mcunXWCyOntO4Q6o4wxquX9uBrejelt42XKgowxhF3/CUmQHDdPT/Zwc0zwO1m89DtCWERW9iQVfXA0bJ6TeUJkpiJKSLp5wrPrbbpEWUqMJHOvqWyEDgxKMOLIYGJmsUwPAj+h55IT2T8ww+cPg9jH1PXmTP5OJnwtw645llgzxJ+FwbzEPI7ONvIqGsQ+yjpY2pm+bq9kQdewB/a2RURMrO6drtowvU4gjH5h0TRWFB6/7foFVqb01IU6EDEFO69pHMUO7FWs7rcrD/dxQHTf7bq02XFmHOBcTZdrh+NDTLSou7FXefNWjGZzaPHK2KIy60xaO6t5jjVMU1S70QTOmrpRuyEN7yT+SYY9nEbEq8N8PzsVKFdXmvWrw8CidBd3E6aovWtSpyFpRaZESTfepRFTWKtC704PKCtyCqhqIhMTC5LVOnf6BuPGjogGrOk0i3sB4HVL3TXGuXs0yZxIAWSoqct3Q+hUQBJjgGG4ktW5NxX5/FzIUNYYIA3SqaxF44NgLnyzYYCwHhYH/iucDAnOWj90ges6lLIxzfMIICVdrbUcCC1LntwcHGHxiQtmgQnNZx0btB7l0j9FRmjo1LxSTnj9+9HkcISFjBd9BNB6WIVDmCKdQg3JYcuWyjsje+uVeG+ghHjBftrlgymykmi92j84sjJhgSFAGuTVOocQ6rqH8N+AcvuFKQ1+0mFtcxtxhS42IN98Fn30FCG0D7zHB+OyCXAyFLmxCAs/hHdpLUZW16M7ECOUyUEEWfLefifXiRPEEeNbJ5z2xqn6gRcfeHDIiAjNesppMRwXwYSfzBonkU+hI8UWt0vukyggrBOjiYQCHOqwb95kDxQM1LBjDGBhuXJrDuA7u1cTiAjNznsEg3HWj27RaHg9kzM1ExRMFJhF/BPJszXQDYxhBdjUY7BiJIG6Izh8Nuk1UIlY96lNREJO2Ax1bE3XczAZYZ1ot6W5C2HEMMmUKIAX8EnU7tBQ32E1M9vgFtjleDhzhWvHh4LwGrpqviiEkczshfUfAR30gAMZir5aE/5q25p6nChxPQZ74KqmKsLrEFfyN4cCb0tZYh8a+vIpgXJNfZdUbhhttExwZAY8cXlVgtF+uSC8hrVzUcu/La39OcA63wDz/5fXeOotCcyG2V3bqpVYMwWzK0IxvRSSdI+CB7B6ocnnRQC5MYJFE+h+AbwkxqWNDj3h045gIW48EbbOYgKGhkE93p6X+0ajsY9lBbQBDEEnoUSCzbPXCLKHak6FPCcXfOTJdTK3X67N1oAwUpNolN64zK8C/gxfht+HM7cffZQ1ohTmecTdzlAR+LMmvOY0PzR4vhwDRK6wb5MnQniNT4pyllDCOewGjAWtBxY8g5ShM4bE8i4QUOpzM2QhZOgwQOyI5CvG1ZhihGJpiRZhvmTufjVNbl9cnEF8iNIt+mR1ZIbuOkQfsacAEO99+eJ2LVUWENZ6h6Z1TLlFy3c6mgwsM4jLbi0IHx4PhGc3iKYZRP1zjs63iDBLiNhUNecfgKDgOovCDEo1RQbSNBHhY7NA7HkbHEHXJRYZ8CNKIry6k13zGVBuoXkxII0ik4rWHOfwsZ4WfNbC1AyQk9KURnj9u7bMcAtG7gzuNan9DKDsDUe6x2R5rKcB3hvMACGOK7cOc+lNV1F24QXN5fFQ3sLd050pKDOIGq/qVBH4Xe4CHXSfTSU6AloHx3SUHmEm/VljtYvTbibgcuZvPalzrM4gd1vqra4i4MwDE1msnoRpmJzA+3Ak+jcjxJInaTgBrQJRM4PcnVXp1BB8Tp+iQNQAhD3WlSnWDSH3vMHDkiDqAHKF0jLzAoMfT51IEHUAeTu5Y0bRDaGuPfaEl6JGRWv8c+uXDGwl6K8WIOoAosZYxyDfDSE3iuixE2pJ0c0g6mHVKhSMFcdBOFuujeITzUis4ojwDKNBCYAJOOTaGQQf2UAFP9aG1QBRD/Bij6o14ogQtmNB4SZ3R4vVtQD7RdkrnlXChmh3h9jU52Egl+5M3eiI0NCrOUkIpSTSVwiBa2eyepDeEgkDtlefihkyqLwr1plW3BUhjEZyJRrbrSFEP0G+NzDUbE34E0JG4nI4zg1mBBKQttMQUVwR8sND4pjG40TbxjwMuK3OHhjP2zi3DbgiRGcMbikgYDi35Ht5w1LoxOgDtkklRjaLM0J8AuxwcsFPwmz+I489XIpvBjxlYFJ8jTgjrJ15e1erMFU5Q+1klmKFEzr0LLSNPR6nhR4lbu4IR3wOaatgFqe8HsPOKLXin62IxmCA7lrxIQRwR4jnhSbWtbhEVQX2OLWHclX2orUxChq9ijE8EAq3Deg9jpsMhAuUCszSwrElC/eeh14XpPkgFFJnpGUwkQKTbXGjDR46Ne1EC8yw5skH4IVwIIQT2srkvXhXm8PX3go/SPaqFVtIxad+PQFeCHE4Uc8K9yKhUHMw24qFvkUlMncRqwFDtpphCONlJOIjng0KfghrY6X4ksbz/fp7um4cuqFUu+8GUCY/yDpAuqvGevq93s9jqpRf+tIbeSK8hvZKs8DjmlYlBele7apU5WYvvb5Tfak+EP1RhLVhy61g2XwBgUYOjncUh13/vhxvhPeT9WKAfjxEU6c+l1L39pZAWJtSNe0nCUk9u0qGxVdp6xnWCqUMwtpo1bSqaqmxrO0NFyxYleNuKoXwGrxujU0zlNRLUn826kZdZcHW28Tkby3LhNhfJprDDRqStDy7S2+d6vpcGEmW5fvkSyO8yuIcBdctEIpGQhKk+ydb9vuNNOvNy9953Ryb0fmpBtZnEF5lOFtuu0lST5IkPu/HP0K50Bvvz3Fye2l3u5w929H4JMJ/QP5D+O/Lfwj/ffkP4b8v/yH89+VphJNZxvAwXza+Fj/GGjHqjy+z6dd0djk9T8ix96wwEuS0TO/Jhts/hESr9dMjGi3+vHU6nfZdrv/xPnvO1YUaKm965/48UsrDWMYa8cxwFu9XTG+itDsf0yfUA8qmPa80vMRNE2sEmZecyMFXp/OmlXbnf2XDQ94q4pWGPFlzDsztNFCS3pcyeyLGksoKlTIelzb2VvYq1Kx2wauRNZNF24LvjvHL9513gXXoTFewSAoTUcZbME3S+59BPwWMH6VUNT+Gde48XWoIEDQSJh7DmbwVTOBDOt6qUUO1QJZ+Hyw7TY0k1VE8UHe9HztM4APiH3+E/PZUpxRuKmWfGAlIlMZxN2kGoQTTlQFtJgHMtsG3z/f/fX50lL2j/e6NEC75dVJTmTUiOvM8ymlzZGVYIy4iwE77zwXeORh/fYgg25/eEKEewqFEZYdnkDW38jnQaN0SWSMcFHUhAOx8LuTVMvkjYGz/zxnaQ8BvK66Fw3XKNDiYWCPwQ4XmZtIR8GkLN0ZfwkO+uwYnoC+6UBxzdIQtYxHJHhNjFDn0PWECjVPe/0DT2PE9QoR7EgoKjQTWCNt8C6wRBcdF73zk7Q/bF8bT2PZ0U1ErhzW5zAuYaFCgKGhLsVeGoEXYKVhf6FFvg8pLLGwhFOKlKN7pUOeg7Z09PoPFO90JfQ1PPeWlQBad4pQDTvvcDhTVVlP/BQhdLCR2DIqfFoRv4+ZCoNKsETQ0OktDPmSnXW4Kz5ttkl74vQDGTZp3yfizRhi/CJ/CjpvtQHbJ6XkuZ1Qhr1fBPZ9CR0OGeqMMT/S8p2TEf+F74oYK6Job3QOcNcL5gBdqCU0e7wxmxNkT4y6sr/M2RiGRrkzEjTVClELWiE+YEHd6Pm5OfVM3mDRNU0jhxBohSwFrxLDMfFzyeW97h4oCU5lyzSivkfcI3QtYI0BJvdaUv2aDxChuoCQSBuXCGqFKAWvEO+yFPgmPP+0yv7qLGPuRCLXG61gjTvO0FS8FfV4c0u4RsezaWSNgqF7hEGz7nRJJGyl+D4M4Z47QsEYcmteQnoWodHmQBlnTKaHwFWCLITVVBvlQ2167Nzh67TIVGnIOhoaEtHareSNWJgPKCSHKGIBPAFcMAGuEWK8/OI0Xi8salqFfIjS3wO1SycWzJhF6I8KWlyGqXW4+WkBR6JEHmsAagV310Xvnfi4Bdt9vjLAQSySlrjK180TnDtgoszyUdm8FTPcg97b7seRWkA2dWtDRuuEAlczvh+cQ89/756RuMoxttZX5SLN9gKaja6wLKpi16Ge9FYswm/bH24CHhO8+X0pm1NPsw47o+WW4TBMzhXK+sWUOwO2gIzvYuVNJXMHcbwXLWFnyzuZ8/aJOsw8ZoO9cLOATlUWYBUqmtH3edp0hvJnVzJbcJzabrlubQHbmmluWHCFvnOmpyW3P3BmPEssjrI2Wib4OMtfSbBu4rclMN+9mJLvC7tY+krk/zceemL5yDktr6V1mO4WkuM5ZI269kWS734VAZJVRY1I632cAgTomj0hQiCgnuL3XITh7/m6bJIP1NmnemCM4TwVo283Fo7cF+zgs7GX/Te8bC2Sf8i0Sczp9yhDbfuP6etKWijK4NM7HbqulsEYMOVVG3qNz4SyI+WbBaROw2zL7yDaMD1BXzzgod2fbm+ewiQLMRZw1on6zRpS0YHzrx32KTfDO4dRHur++1+shr80zcQZTX+akzSj8tJ+PZhkFAenicLG/SoKAxXy+DsqHwQIOppf7BacAHmGzg0D0JKQGB32len4o/C87awRET15GEVwa7yDfLjrWiEJZ2FkjeATsEwd9lPouxQI3fPvcvcZZI7QrDfSt7eFDQ+K7XGhhFqCj8CCaLmSN4NbUvVcEVPtnl2ENpRv186EToMsy8R9AhOhu+NFpo+tPXIWzRrgy4hazRvBkm3MQDAnI9o/fkjbkfA0/xxoBKufqgXGX74ctaSaImdppBfCDArNx4udlbnajz58vF+Db34668R2+H79YxcbgyCfR5eRi8Pb2winEVB40KrR9326sEROfQ88eD7x+equ4C2aNSIpqGvgxiL1OEeU0ijLfA1ys4Dt4N5kiPa3bWSMwv4T1nbgUo2M1jxP85E/vhbmUYo0oGAw6nH/rvJu1HwfOr9HRmwisEV3DNDZwQtLyIR4iDN2U/p7gsLlE3ZezDHFpHg12Gowb4fbBomqaTP7g3FTnQ4NxIhWflusHdhORSpAGrQa+AWs0OzDhXMDlWg7hcD7D2P4SbtXqz6TSvc5rbwwdiycblAX19NDYfK83y2OLyKwRjlzGIsS3dqf9+Wd6GY8Xs6/3N6X8snRJu6NM6lKakT4YHphSQ6u/g0Anagn0vdVCU/rdfv3V4MPIlTXCo2D/S4Gol/bHK3wZRQrvd7zrr1fTemGl/n0JvsAb1cq06LrJEqwRAyWNqk7gm2/VZXkZFXCRhP6XdF6n0V6v3+58/UgvvKucjsZLPimp+940+ZDpm3Ee250/f/1a6f5cof+5Lb/mE6wRtcWnrjOo3Xl7prXrCfneJtdt4r5L0BtrBOsun9yu+tPP637IizKvm8bH16scbRcZzpaHuBslSZQez5vxj/hTvcnl689nFgx+vG+mY/Ps/R9AvEodrd5wLQAAAABJRU5ErkJggg==;sketch=1;curveFitting=1;jiggle=2;fillColor=#B2C9AB;strokeColor=#788AA3;fontColor=#46495D;" parent="1" vertex="1">
          <mxGeometry x="667.5" y="427" width="62" height="62" as="geometry" />
        </mxCell>
        <mxCell id="mURqfK87lyIfhzLxHdiO-25" value="&lt;font style=&quot;font-size: 15px;&quot;&gt;Source&lt;/font&gt;" style="text;html=1;align=center;verticalAlign=middle;resizable=0;points=[];autosize=1;strokeColor=none;fillColor=none;sketch=1;curveFitting=1;jiggle=2;labelBackgroundColor=none;fontColor=#46495D;" parent="1" vertex="1">
          <mxGeometry x="83" y="200.52" width="70" height="30" as="geometry" />
        </mxCell>
        <mxCell id="mURqfK87lyIfhzLxHdiO-26" value="&lt;h1 style=&quot;&quot;&gt;&lt;span style=&quot;font-size: 22px; background-color: light-dark(#ffffff, var(--ge-dark-color, #121212));&quot;&gt;&lt;font style=&quot;color: light-dark(rgb(103, 150, 255), rgb(255, 255, 255));&quot; face=&quot;Lucida Console&quot;&gt;FakeSchool Data Project&lt;/font&gt;&lt;/span&gt;&lt;/h1&gt;" style="text;html=1;align=center;verticalAlign=middle;resizable=0;points=[];autosize=1;strokeColor=#23445d;fillColor=#bac8d3;sketch=1;curveFitting=1;jiggle=2;labelBackgroundColor=none;" parent="1" vertex="1">
          <mxGeometry x="402" y="17.509999999999998" width="332" height="74" as="geometry" />
        </mxCell>
        <mxCell id="mURqfK87lyIfhzLxHdiO-27" value="" style="shape=image;html=1;verticalAlign=top;verticalLabelPosition=bottom;labelBackgroundColor=none;imageAspect=0;aspect=fixed;image=https://icons.diagrams.net/icon-cache1/Dompicon_Glyph_File_Format_2-2630/file-csv-format-type-1406.svg;sketch=1;curveFitting=1;jiggle=2;fillColor=#B2C9AB;strokeColor=#788AA3;fontColor=#46495D;" parent="1" vertex="1">
          <mxGeometry x="259.5" y="205.03" width="53" height="53" as="geometry" />
        </mxCell>
        <mxCell id="mURqfK87lyIfhzLxHdiO-28" value="Data sample .csv&lt;div&gt;&lt;br&gt;&lt;/div&gt;" style="text;html=1;align=center;verticalAlign=middle;resizable=0;points=[];autosize=1;strokeColor=none;fillColor=none;sketch=1;curveFitting=1;jiggle=2;labelBackgroundColor=none;fontColor=#46495D;" parent="1" vertex="1">
          <mxGeometry x="63" y="222.02" width="110" height="41" as="geometry" />
        </mxCell>
        <mxCell id="W5YNX-ni_Id-cuADi5lZ-6" value="" style="shape=image;html=1;verticalAlign=top;verticalLabelPosition=bottom;labelBackgroundColor=none;imageAspect=0;aspect=fixed;image=https://icons.diagrams.net/icon-cache1/bitsies_-2960/MedalSilver-1469.svg;sketch=1;curveFitting=1;jiggle=2;fillColor=#B2C9AB;strokeColor=#788AA3;fontColor=#46495D;" parent="1" vertex="1">
          <mxGeometry x="522.4999999999999" y="271.52" width="61" height="61" as="geometry" />
        </mxCell>
        <mxCell id="W5YNX-ni_Id-cuADi5lZ-7" value="" style="shape=image;html=1;verticalAlign=top;verticalLabelPosition=bottom;labelBackgroundColor=none;imageAspect=0;aspect=fixed;image=https://icons.diagrams.net/icon-cache1/bitsies_-2960/MedalBronze-1453.svg;sketch=1;curveFitting=1;jiggle=2;fillColor=#B2C9AB;strokeColor=#788AA3;fontColor=#46495D;" parent="1" vertex="1">
          <mxGeometry x="392.99999999999994" y="272.02" width="60" height="60" as="geometry" />
        </mxCell>
        <mxCell id="W5YNX-ni_Id-cuADi5lZ-8" value="" style="shape=image;html=1;verticalAlign=top;verticalLabelPosition=bottom;labelBackgroundColor=none;imageAspect=0;aspect=fixed;image=https://icons.diagrams.net/icon-cache1/bitsies_-2960/MedalGold-1470.svg;sketch=1;curveFitting=1;jiggle=2;fillColor=#B2C9AB;strokeColor=#788AA3;fontColor=#46495D;" parent="1" vertex="1">
          <mxGeometry x="649" y="271.52" width="62" height="62" as="geometry" />
        </mxCell>
        <mxCell id="W5YNX-ni_Id-cuADi5lZ-9" value="&lt;font style=&quot;color: light-dark(rgb(0, 0, 0), rgb(255, 178, 66));&quot;&gt;Bronze&lt;/font&gt;" style="text;html=1;align=center;verticalAlign=middle;resizable=0;points=[];autosize=1;strokeColor=none;fillColor=none;sketch=1;curveFitting=1;jiggle=2;labelBackgroundColor=none;fontColor=#46495D;" parent="1" vertex="1">
          <mxGeometry x="394.99999999999994" y="245.01999999999998" width="56" height="26" as="geometry" />
        </mxCell>
        <mxCell id="W5YNX-ni_Id-cuADi5lZ-10" value="&lt;font style=&quot;background-color: light-dark(#ffffff, var(--ge-dark-color, #121212)); color: light-dark(rgb(0, 0, 0), rgb(128, 128, 128));&quot;&gt;Silver&lt;/font&gt;" style="text;html=1;align=center;verticalAlign=middle;resizable=0;points=[];autosize=1;strokeColor=none;fillColor=none;sketch=1;curveFitting=1;jiggle=2;labelBackgroundColor=none;fontColor=#46495D;" parent="1" vertex="1">
          <mxGeometry x="528.9999999999999" y="246.01999999999998" width="48" height="26" as="geometry" />
        </mxCell>
        <mxCell id="W5YNX-ni_Id-cuADi5lZ-11" value="&lt;font style=&quot;color: light-dark(rgb(0, 0, 0), rgb(255, 255, 0));&quot;&gt;Gold&lt;/font&gt;" style="text;html=1;align=center;verticalAlign=middle;resizable=0;points=[];autosize=1;strokeColor=none;fillColor=none;sketch=1;curveFitting=1;jiggle=2;labelBackgroundColor=none;fontColor=#46495D;" parent="1" vertex="1">
          <mxGeometry x="653" y="249.51999999999998" width="43" height="26" as="geometry" />
        </mxCell>
        <mxCell id="W5YNX-ni_Id-cuADi5lZ-12" value="Raw Integration" style="text;html=1;align=center;verticalAlign=middle;resizable=0;points=[];autosize=1;strokeColor=none;fillColor=none;sketch=1;curveFitting=1;jiggle=2;labelBackgroundColor=none;fontColor=#46495D;" parent="1" vertex="1">
          <mxGeometry x="371.99999999999994" y="333.52" width="102" height="26" as="geometry" />
        </mxCell>
        <mxCell id="W5YNX-ni_Id-cuADi5lZ-13" value="Filtered,Cleaned" style="text;html=1;align=center;verticalAlign=middle;resizable=0;points=[];autosize=1;strokeColor=none;fillColor=none;sketch=1;curveFitting=1;jiggle=2;labelBackgroundColor=none;fontColor=#46495D;" parent="1" vertex="1">
          <mxGeometry x="499.9999999999999" y="333.52" width="106" height="26" as="geometry" />
        </mxCell>
        <mxCell id="W5YNX-ni_Id-cuADi5lZ-14" value="Business Level&lt;div&gt;Aggregate&lt;/div&gt;" style="text;html=1;align=center;verticalAlign=middle;resizable=0;points=[];autosize=1;strokeColor=none;fillColor=none;sketch=1;curveFitting=1;jiggle=2;labelBackgroundColor=none;fontColor=#46495D;" parent="1" vertex="1">
          <mxGeometry x="632.5" y="326.52" width="99" height="41" as="geometry" />
        </mxCell>
        <mxCell id="W5YNX-ni_Id-cuADi5lZ-16" value="" style="shape=singleArrow;whiteSpace=wrap;html=1;arrowWidth=0.4;arrowSize=0.4;sketch=1;curveFitting=1;jiggle=2;labelBackgroundColor=none;fillColor=#B2C9AB;strokeColor=#788AA3;fontColor=#46495D;" parent="1" vertex="1">
          <mxGeometry x="464.9999999999999" y="293.02" width="40" height="18" as="geometry" />
        </mxCell>
        <mxCell id="W5YNX-ni_Id-cuADi5lZ-17" value="" style="shape=singleArrow;whiteSpace=wrap;html=1;arrowWidth=0.4;arrowSize=0.4;sketch=1;curveFitting=1;jiggle=2;labelBackgroundColor=none;fillColor=#B2C9AB;strokeColor=#788AA3;fontColor=#46495D;" parent="1" vertex="1">
          <mxGeometry x="594.9999999999999" y="293.52" width="40" height="18" as="geometry" />
        </mxCell>
        <mxCell id="W5YNX-ni_Id-cuADi5lZ-21" value="" style="shape=image;verticalLabelPosition=bottom;labelBackgroundColor=none;verticalAlign=top;aspect=fixed;imageAspect=0;image=data:image/png,iVBORw0KGgoAAAANSUhEUgAAAWEAAACPCAMAAAAcGJqjAAAAyVBMVEX///8TB1QAAEgAAE4RA1MAAEmxrsMAAEsAAFO8usv19PcAAE0HAFD/ygDnBIjV0+BjX4cQAFMAAEFqZY2Sjqvu7fIAAEQeFlhIQXfNy9l8eJoIAFXl4+xuapGhnrXmAIG4tsT/4o3/2F3/3XUzLWTrO573t9j+9vr2rNNua4opIGLe3eZUUHhcV4Gsqb5GQXCGg6EcElovKGQ/OG+Yla88N2oZEVbEwtFQSnt5d5P/6qowKmP/11Z2cpb/5pmIhp8AADr84vD1p9HTtONsAAALYUlEQVR4nO2cfX/iuBHHsWwjsNSCATvhIXTvjl67PAUCOdhLub32/b+o2pZGtiUTA4k2n6bz+2sNWj18JY9GoyGNBgqFQqFQKBQKhUKhUCgUCoVCoVAoFAqFQqFQqM+mSOmje/JJFYxbYyHa/ui+fE4FrVCKIGErClqeI4SE7QgJ2xYSfquGX0DDyu+R8Fu1iolQb1X5PRJ+q7quBOj2K79Hwm8VErYtJGxbSNi2kLBtIWHbQsK2hYRt61MTjr5KbT6wE5+a8MRlbiq6+8BOfG7C4zDrOr//wE4gYdtCwraFhG0LCdsWEn5nHboPUl3xgU542IcCD0H6jISvVLPnSvXEBzrhNhRgLhK+RU3iADDxgUEYCngtJHyLDMKrXvmeDgm/UQbhaCKz0iYiL+29CAfD6cNquTpNO68UWqxPSZn+fhhcWOtw310tu6Mvi+qvo8Omv0y+X8vvzxMe7rPerV/rXarDprt8fH5c9gfDC/P2DMK6biXcYXepfptlT4tTSKnrcpdROt+f4beeUZ+5nLvU512RSzAKs1rcpigx4NljKAI30chJKk3KM8IeDxVd6Lokq4/5bD5NGz1DONp4vuidT8ebSfbZ/LesKVLs62TjZBVy0cdj8zUAIHuE4yy5jXvpCPo9FkI7XujTdVVDLuFQtRO6vVU60q9MpMgBYZo9sm/pwzQuVMqN5IPJseeq7x3up7NUTXgQ00LvWJzOXxDyrKlegfC+MIq0j5zQTf1CtkeYyG4kb+CWOSWF8YNRfhSH5UJuK6l/JfZdXxEWX31NZu1IvFJ5WkZ84G65vrTRKsLRPSkXdPzZpBFxUbJA+CH2tIKOF48+nLDHGm3G9Z45/lEr3teHmSAh68aRVxHmq0b0xPTyfnG0bT/Uv3f81cIzCFdU5LjbxcT1NMKbvIc5aVJhnH40YX4Qr2DIE0OXd01bcUXAYeJ8Z//Fi5v31YTvG0/aCs2K53lgB5IDzlrOHtnLnaMRDgoVeaogn7e5RvggV3DICGXU97PBhHxyPeHffwL9/h6EHWeb9NlzyXzVXT2z3OCRQaHwNFY4GH1JSr5Q5qVDvvOqCIe7U/oPz6UxIbltdNWLEbXyD4lz7HYfW346V/BpTnilVnBI+XO3u9ySFDmHkorwTsw1b40Ow05n2Ow/UxryWS1gk/C//gL6+X0IJ30N/ZPwvxaDMSwZj+Qe1kQNiLujTloy6GxoMiRPtqURTsql7OjDdNFpb1pqFcawonJu8aqdbUaT6Qz+b5FwU01t4m1k/zs6rNL1D4MEwpOeHEzuzi0G894Ft1EG4Z/fm3AyHp6/vtE9DDRfcY0TAHHnOfbFPH9/DcKpTejLfTzaQUE6FZ8MgVtIpqq+4FToERAew9SSbr6lNQs2HAh/IaUWZJWDejP8IwiHrZJLo9ZXD5bDAoryp6L3GbyoHdIkHLLc4wvmYXnS5P7oeLREIN+rgPDUh7kp+QSd3GsAwlN6wZgrZZ+w55cTkRUPdpKfALfQLe8bC+XPGoQ9UvT21xJUOBb/j4Fx2Zf7dITFDoSf5VRwzbWZKipAeC1aZvXemS77hI1OtYHHXPb+ToIkU62kAmoQLlc6kRu/x7Ia97IUf9HqAxcMCC/gdYr1Uze8BYpw05ct6H2slXXCHjNiBrCl+8JMLHqS+FY/TQdgTw3CcbnoS1hsaynxEONU++CWCIORcI1kdDVqIAym3aNV5/PXZJ2w/gI28jUmtw25PHKrkavvVhPW3wtYcjSds2gMvI36DtApQRiAmyOJwJQpb01ZLE7Ianom0lQl64TpwPgKxukKpBt2tj5p/QzCvrY6IahNU5M/ic+tzMakfKbbwWI3Q1HyuJ4T3sOmmNZM4+2o+mcupqz7wxXnykiaBbdbHIzHzMjhkFQT1psGdy/bVGEC2XezV3JrE4QDudjDJ7MgTLsiHNyVzv7J0W5XFb8yZRD+4xfQH9lzO5Y/AeX8JsJ+xVzL5cAfsyd5MvZa5gkUlmMd4VGRMAyJ7o36wJwIwpHcICsMGXhnhbhERw+vcDKriyY3GpfEJe5mUvN3IwwRrllW4yuEgwvX8MWE5ftST1ieMIqxtY6jx4h47wL3uJawMehrCVdsvbIK/pw9SS/V4+b2Ed2yhtuvEF5WWYmqOyXYfovx4ahLtHiTd8EJxDph8sX8Ttphvsye1DZlvnOLWwgPX7HDjyXCW2mH52bBvWElUg1XPb8YIbwkuGadMDODIx3Y7MVt9uC8L9G8xUqA8eamLxHdlVbt43lfoq/7ElDDujtnhXhehYt5ZgzWCMvtrCjYRaQjp/xh80SqyF1DOArP+sMd2GMF4a/gDxuWLJjp/nBBk/boCeLP8hj5iirumkHVV1BXn+lcw7wqN1RsgupM92R0FqKaVxHOz3RGB8EHk4TBFLjGpRZYmkrCKYWmIxuJ6/yJiowU+SdQ3pi3dj4uAb0PHTmHEEI0TrlrqOM6whuIS+ivD2xtQBiWtEP01aTycs4QThayNOK1e10FYen/MkH4178r/SPr5dXRS6LNMixhdeaClRU65eEoIFcS7lCvupiKQ4P3APFRpi3igwrMnyUMvb6FsHyWa/jXv/0VdCNhfldaISMVvTnoRVlpbwrym4rrCKs5DMclC7VW3IBwHrwrhczyOxdFODIGK03MLVbivQmXbi7ymwaen1WX6pJilS+ZaJlfaFxJWA2Ke4U9bG/ecUSw2r1i+GS4zU9vQPjw50o7OonDi0ev3uksEHY4h8yNw5PC1ssHr/YVh83BFjfHBe/+SsINFUMIfWi5s/Q9df2mzhgbsMSef5SLMchuCHXCA+r6x2KrazE50qf/UMJheuvNevP+fvrQIqrztOhIqoE6IXGTgvsuy9whvr2NcEdlq3gsvv8+nY62cXaFLBHnp7gn1SEet0bT6ff7Hsuu6TXCieHxOCGn9TAKgmDShHwYUhv+sU44fArFZLuMFrKc2GPp7drlCzZMCjJxGRHvq/MlagkXroGSlhml4ojAlvJ0kxNe5CY3aTkpyMW/BmEpXyIQPrbn+qRHWiSGlcLrf5hnnbB7Wuv5UulYn8r+UTSvyjDZwKnrasLFDJ280Vm0ViktoENFclBImlrOz7BYnVcoWB9ds0/4odGMtbhfSHb6/hDtfC0rjMf7ZDu5lXBj0zMaTV4bGTIrxnqGxDVabqurP0m4M66YCIf3Lsi+/BGEG4sdKQw3ZK2KqFdyTmCFkXIyS2l9db1Uee6lJ54NwuLzYqj08FSEElKeegsHkpVzi9G0ycovTgYnu0VmFrKSyh+ezolbhhz6d5fcc1xAWOlmwkkzR+K7ab4oZ2Q8qo5HLfoulPHJo9hBTqyVShH2W+JZJ0zl58UhB/u7mKVmNrGvsSPSgg8kK+eWzWf7MaaZPU5LPoq2xjwrWThxHB44YXCrzVm8PZcHXVYt4X//558g0e+bCKdpTaf77Xh+3LTPp9xG0/58PN7uvk1hDgKZkB+UHyNtbEH1n5MNDt92Y+JvC0n1Z/7ubGewdGiP3T2oO86qglF7cGzFvTjukdm39oV5+rWEdd1K+PMomOgT/KqQsG0hYdtCwraFhG2rlnB0GIKyZyR8pep/dfun/I1oTG7Kl0DCtYTfmFWFhHXCq5gKxSKrzCDMGPyYHwlfIoNwewoSAA3C6u9NdF89lSNhqat/T3epkLAUErYte4RlVqx+Uf5/J3uEx/NM29rErk8ua4QbAegdevm/LHuEUUJI2LaQsG0hYdtCwraFhG0LCdsWErYtJGxbSNi2kLBt1RJuwj0dqfhdH6petYT1u2bUlbr6N6GoK4WEbQsJ21aTyJ+AhkjYjppU/ox5TD+6K59UKnvcSAtHoVAoFAqFQqFQKBQKhUKhUCgUCoVCoVAoFAqF+hz6L2JcBXZHnfn1AAAAAElFTkSuQmCC;sketch=1;curveFitting=1;jiggle=2;fillColor=#B2C9AB;strokeColor=#788AA3;fontColor=#46495D;" parent="1" vertex="1">
          <mxGeometry x="794.53" y="245.02" width="86.39" height="35" as="geometry" />
        </mxCell>
        <mxCell id="W5YNX-ni_Id-cuADi5lZ-22" value="" style="shape=image;verticalLabelPosition=bottom;labelBackgroundColor=none;verticalAlign=top;aspect=fixed;imageAspect=0;image=data:image/png,iVBORw0KGgoAAAANSUhEUgAAAYUAAACBCAMAAAAYG1bYAAABelBMVEX///8LSnL8/PwAR3AAOmgARG4AQWwAP2sAPGkAOGf09PT/oF8AQ275+fn/2Vzw8PAeWH0ANGTw8/bq6uoST3YpYIMXU3lMb403a4zn7fHa4ujM1t4AMmPu8vWJoLPS2+Kqu8jBzdd8lqtxjaT/nllVgp5Dc5JVeJSbrr6MorV5lKo3ZIWxvcnf/3P/2VT501ap/6ZKeZZggpu3u736mVQAK19ji6W3yNSHpblbhaCvsLDJyMihemLPfUKpkIGjscCncU3wkk+ilo6pfmGeoZaVfW/CfEigs1PiiEfR72WIk2SzckWrpaKWoXWVnYGig3CvyFWaq2KGeEaplU6RloPp/3TZuUSymUGdq3TB3VqnoIvDpkKjvUOZjWONlXejm3tBNzRNTk1gbpg/Zr9DeOydn6SvmFd+bzoXFhdZZmmSk5ZmW1WzsKdqqZpGf3GJpYiarJuVVSY6x6l/tX3RdS9a99RLqJKI0IWGnJeV5JKeZT+H0YWMb2CcsJtRVm7hAAARWklEQVR4nO1ci3/bxn0HAZAgKCAkwZcAkARIKiIpUrJMKWVG2aXtOrHbuI81a9Im7dI9skeWLt2yteuW/u+71+/ucIBlS5UYV72vPx+ZPByAH37v3+8ONAyNW4X5Ovi2idTQ0NDQ0NDQ0NDQ0NDQ0NDQ0NDQ0NDQ0NDQ0NDQuAsgy88m+6vXojU0NDQ0NDQ0NDQ0NDQ07jLCKI6T8IYuZkZJnET+JTMCPOOmbndXYH7nPsHbl3HutbG+/zbG/bUYCsIolFo8775NoeUgI9o/JNi/EbZ855CI9PBdfvm/wtfeH3M57FOhH45u4nZ3BnFnn6AR3MTV7tOLdWbs+4BdvfOuOpDcxO3uDNbdDkHpRq5Gr9VppOz7rMFGDtlAxG7XjW7kfncFabtB0L6Rq7GLlZbs+6pLBxodNpCU2Iy7GRd8/3rhdWZ1291uu93JDg/WwxXy3of3D1fj9eB172hWuwRl8PqLNh1o77OBUZkOVG4kGXizMNrvlq1yd3oNBRtbbYxSTxrz08NVGuFAYeLMMl0dbtWoEa4aJcvq7meDbGiTi7Ud8PqLEh2wjthAWmYzrk7pG492uYRhz149VcXKIqdaKz4SjHuQaJo19mHUm2QNYuyU2ui0ci8zmtglwnYbvP7Ew7Pa7WbMBmYeFjkaujqlbzpMysmSk1793B49tzyBgXkPK3K4uTAkKaCw2hvKp63KymkEI5sSYoNRRp7tVJxqf86v7lGhKw7wLsB36MNX16+eq2JBpVBhPI4a+BpnDx4efNfISAGxuCHlNSC8I0PGusqkILx+vJ3NpMAyYdKbXp3SNx0Dlz68G796roouZaezJd/SHuLf5tHjvb29R3693mrV60IQ5lR4PEV4DFtQh5feblpoQ3cCEXMEzasn4abH+EZyy+EYXewBlsHe+cPIxLZg1uqtOszGxykaGeEB5lQK1suLD2ZD3tFLZ/zZIlbd8evDZ2ZUxcnOGLnvs/f3KB6fcY9k1kEOM8Y9iETVZeZq41d6/Q6T3vylM24bfhhF4CHN0Xg6nU5SmW9hOkFj43VhKh3E2/EKHV4dbePM/qfAN8EdV0KfgB+K5BsO0emrodK/CZkUbBSSZ0OjZmyQJZxjKRw8keMCdUw1YzbHd/RDHolMfEPIY/Ne3wwlGhDalpRHMJrm13Ck18a82nSb/RImyR96dqWM4PR5jp9Mmw4eQllFTlHCWc92Ha9MjjuuNxGup+dUPPrs+PG9CoLLOL1y0Q2bJJf0h2WX3LDitlP5ygmElNCIV4TtTx4zY/geSOHpl4jLfgsJAcl3MjJmfc+DO1rkjjYLD8zre9zrz6wmpoHHdTmPCIAJiKasSd0mPKIGLlK6teeUOONcktiYqz7nZam6yJwYIflYJRnlPkTFpF/KoULdxqBJL4ZYlzoVftRye5ItgTNzA5+4EbNWe++ASuH9gVGr47Lt2fGzDTrUqhEj6wRGr6zc0WLpP4vZHg8fNh2oQlj3m8z0RsYyQ5MoV24Z9HlRQTNpZnjaT3Be7clDFbkYmvfVh8ZcY+q2rOaPsQSExmzMoFUzKyVJyCN6fmVsTKm+Il4/IEI4f36GA3Orvvn+8fHxD3yj1iITwp4RueotLXo1FrMrYMwmo46n0BGjpBopNDnZ8u/W4DMphD2FcVbXWPezul6yU35ekbYjNOmDzSr5QxWqijG5j7UIGuocR2QoLLf0jISOtZA1hB+Q0HDwgnqkHyIhHP8IuyMqhvEIlcTKIzTIkVz1GELaAJ4fTM/qqDTZ2Zz3tsDioLVQngBxbWKrQ5ao8Gfgvayy53lcWuzB5456Kk8faSFrLRp5UxIpLT0fKe+CuCnsgcxa/JA4pR8TKUQ/waZg1PARmip1eEwHsHAcqNUjpNA29JWguC4pWlcikWkHAIpY0VkRDC1RNlkVR/CLaw/N/izPtXqT8XiysOE0ysmta1lCMhTv0GdmzooetirVqhC/KJpobukECbEfymazvnmOpfCBj6Xw5fHxz55FLSokEhnmI2hgwC1d6vdDOe3FSNQUOuNAszR5OynkYknhK6XJbNzOGIVlL+azKZ/DXasxrqBjpTFIJelmzH4w7fV6cIlOj4DZ9kwyk2p3uFyOheAdyGaJb0GqvCLZJHU5tZr5AierDxOUmhp/fXz8kwu/RnNWMiGYGjHjd5vecUUvB16fN/NG0NGAVDZDU2O+lmnydtHsXgs1cMfkhitJDF6XsDkGKoW2pn27sZSymgiKA56IGMDaNHPDIXe9FstRwjY8MtdWkltWRyZxKa2fnlG/Y/o4UTp/gWLz2S+Ov//C9ImvorkqOmlgUJNW2kGxSHsZ7YxW3seWaaLUDhpAk72LpeiUq4ENbrMtdLPHFGHL6LZEzjBTqIN0kMvJZI9WXMhirwG6GUJiwk2NXMzx1yn+8vTk3ocb4pXMwYPzvYPvIlv40fHx3/hYAtROyN9lyuozpR0EilaFMo2pvohygia+2BaCdu6knoZOl9Rz45rhcJ3yGZnWovgqBm8qCykMwPuOiuZJD8yL25IFN8SaiCQ+wVPMD9966+Tk48+JQsQoUXpk1IJnP/tBRM2A+CQSOMIVc/BKM2/JHtED053TBxQdDUGTWDY6Yo9c3kXNACyvinoddEdeK2GafokUJmpbEjTcze5r2GeWZknJB88U2eVNwrSxQRYk44/eQrh38vGLAHH74v29h5F/dvwskc3AJ7LosUBcyS4rsbRZNPMYqcKwe69B062ioLMO1Y8tNVKYtrzaFoQeQhein831mMP1ZH0dgMPr0u8kt6ymNCxsTogUkEF8/BT5sM3z8zPj5784A9bTNJX8RdGYsE6JRNDMa8DA1MpaHjTzMjYE+a047RYBq1OS3YEU3Cg3zSpaBvGDwWDg99SmMiThbnZRkg4q+goegXlqotJuHJJI/8kJFQLCyaefRMYX50/iX77ARyQzIB/nCZWx4gNZMWfBUn9+IQ+aeRmaIOuzdvCWZkFnHXKKvsS+qUo4QTCarxZtq2LbdjXXVIYkPLuvwWQMdzIxu5F9YpJbNsOEBMZfCSncw3JI3vve07816psWM4MW/7Md0cexs91QoH2l3I3nAn5hQ5wZCNjnraKRV4O1mk4bxYtYo6ljV8qiOqMn8eXNVM1ECAaOOg8DnpjNJT7ZHYyIXWWkgOzho89+/Xebv/+Hf/ycRWYhhXREU1w7u6yUUzRGKjdbcIjVjA0tdigFT6HIEOl0WZoGnlMIK1m4Be08SQ9hhSvrV8OCoMN1AeausRTswXpbq9f9n57c4zi599Gn//TPv/6XzxEuanjls16P0KRahD7U0iWTQmEk4hpkMlfJSoOX0dSxiui/HfTzxgjptKwEzHOKaTO108cg+i4s1bOybUnomLgZfYW4wOYSZ9YMYyJzagsnSAAf/+qTs/jsX7/YfPFvRPdpyZbxSLTcy25TKinmHsAzg+rzdCRDE3tkEU5uD0FTocjgyaucDwWwDgx+JOUtVa9quwhQdgg9XBXua4iZoTVlToFLgGKD6EEzjIjj/uzk5KNPP/zsy7PI8I2L3/z7hf/Vbzf/gXfEENbTJhP5OIup97EykcjPrGEbBSk03ykj5xGQI+2iXihSg1w6LbZTgM1GIATHOlomURiG0JupcO7CvobiXSkZfYXcHBzeGOuBPRoQoWw+2SSBQULA5jf/+T+I6V9/ZTz5rxeM9bSVRz6iIg8nNoon58ugvJmn5oBAkyfTBLMq19jTdlVAe1Fu4BYkr6HSEINi0+Uk8q4gP6coCZc6JnL+N4fSkTGK6AHK+oke8Ibd2e/++3cXvmm0fv+1Yfz4/L0QDoBBTE3TLeWKmkhdTchtEiukCTp8u+gjFSX1kFOIvpxQHzotYGdJmRWzBSmWtXMBHQMK2UzMg0QVqCBCRjnNFOs55TCKARtkCJjnZ6e/bxmDR+ePiEchR2k7jy23KZEoUc0dVJ93cAvzCJYiZd3ULQGS+qY0VrAtBPyNQ20WZGeJGZCXCj1kuqTsDYLGmRyIoEDhJ1Pv3sGO3pAadhcoN0VMf3r6BxQVLt4/eLjJdPOSIe2KKZEo5/VByz2YAS0jR8qRkl02MIAiebMyVJIS+0BYrKpiZ8mPy3RcDMHirmILfFXSEZEI1I7LndqGPYiIOVLPj/8igzBb9a9OT1/UWsbZ84PHT2jlTM1lmFAjUmwhVatHaObx8MGbeWXhl2ErwU5aqvOCrLRge+k2O41lUVLkMBdqcQ0tVWWxaiqWw+CRh9BEbsIIIyA1qCKCvtdoZvr16elv8Ycn53sHD0IxYcF2tCjRmXeNYQD6SlzLBU1tsJc50HSNLW1Xxzif1EPaKNcww2wveMy+8rI4gFVkEUwC3qAnzxGw/KMjLYTSGxzxRV+wI58TRRcxqDEYdHnTuPjD6elX5NN7B4/3PjgDU4iH4PGp/piMf3M1EuVS6EWOpiGsYO9m/3BRM09dGzdyySv3Y8zbrPnGJMmA+fYAa5jOpn32ONICu+X2Ztthm69zNeGGsMKC4qlkDDWTiuHp6enp1+TT4H/39vaef8FMYT/gHWp7st1OLJdK7UhtB0P2wY20m6OJL31dY4/tNZBrL0pr4/mWKggrhsUxe7pM4nQh9j5ITWWhYZ5TsWCxIrNNwnIcaYGXa4KUW9Ktk1jZcaFMNqaisHD6f5jx9VryEO9Q+oa4kfiIR3lEqOOUrWotQ7vaxxZmC61EoKkiFht3s4m7oEvHN/lKNYyavHLtKVdtmxoCa3GI1GeY2dvDzMh86Z4Tq8wrXjm3pH6kVqPdCqNVx2Hh9PTCb5GkFe/KOCApa8M0RtmdMKwwzKk+pNBgtgEjtJunqb2b3x4s6Kwv1bVxI5+8LpsqvR6VpxRMosy+MWZGsCErt//KkhpLcm65poJv8Q3Ctc3TP/7x6QUTGYrQj/f2vkHePzUyrgWDslBVNN5bT9kAc4BepKqGZe/mxVu+Qp+KsdzauFEgrFV2J5/nRdTwM50QeQ4ToOiYrDJ7zsqOFIUyueUKy7Vu+HVx3JD6RN8cIFsIjYT4m7UseAgEXaV6hLRB3STmGWE70yUuezt6+zl4h3qTppSVsiStLFWSZpVNE53XI6mvXW6uBsaCfH9HrjSnrkg+2J4wcDYoKR2KfbFltycnhDPKFosWhZ2Q7s1rce8gds6brcGjPeSQBix5mzUFVS6Vu88cpgvlT8ieuQ/OMyayw8vSQc8WFLu9HVTNFJO2gxx7eyVpV9Kx7KptNZa5aaWpFCriqV2tVMpexa5OsbqOy/isbAMybeA5FXQubIyHIryPWBovXMfzPKfq9rK9mmhhVat2uUH5FnSYhOogB5CCiV/nib4JjVYHGJb07KqDbll1yxDDxu0KoZ3zdFWizwxSHXTIBGIraRe/CuBVqnZvpz+JEQSB+tawj4bUHWkF0waj+Xgyno/Y45loRi6YRevZcDhbc00HZ0NfMYvS8dHRfJ0vjDIUhCAGJAdaKtN3R/grVYOOdIVwhO+4TCRSgoFCu/ow8oQE0TQeFtB0hwBF+JV+3yIQPxLi11sMdZFSNXbmOu4IClaQXgerTDcn86atMbuDr8feMq77YvGyI/VTZCkknfQm6PrLQkHH5PVgjntcDkIKcW9yB38/5NbxJ7xYHMwXc5bAsx3x8/2hjgjXQUMpwq+GeHw4HW7Xo9F6O5wejnf5KuydAqznbF89tRh+NEpns3R06Q9CalwOVjo7u3uTWCOHwGW/BqV/q/FbRNinUtjN4onGSzDrNbqNzjT9tunQ0NDQ0NDQ0NDQ0NDQ0NDQ0NDQ0NB4k2Dify/Ht03e3QJm6CW8vUQOpv9KaAG+EppBGhoaGhoaGhoaGhoaGhoaGhoaGhoaGhoaGhoaGhoaGhq3BLoLg27GMKWRXd5W/k/8hV0i8o6Ry/bpXI7Mhp1aEV5jS09+CwvsY/nTWPf/j2h6RqIVGjwAAAAASUVORK5CYII=;sketch=1;curveFitting=1;jiggle=2;fillColor=#B2C9AB;strokeColor=#788AA3;fontColor=#46495D;" parent="1" vertex="1">
          <mxGeometry x="785.24" y="282.02" width="99" height="32.83" as="geometry" />
        </mxCell>
      </root>
    </mxGraphModel>
  </diagram>
</mxfile>
